<svg width="375" height="309" viewBox="0 0 375 309" fill="none" xmlns="http://www.w3.org/2000/svg">
<g clip-path="url(#clip0_111_1918)">
<rect width="466" height="309" transform="translate(-38)" fill="white"/>
<path d="M428 0H-38V309H428V0Z" fill="black"/>
<g opacity="0.3">
<path d="M249.18 382.418C231.659 382.418 216.56 381.244 202.083 376.671C182.573 370.553 167.102 358.378 159.584 343.299C155.483 335.018 153.868 325.377 155.048 316.045C156.291 306.342 160.578 297.752 167.164 291.819C182.698 277.729 205.128 279.645 226.812 281.499C229.671 281.746 232.653 281.993 235.573 282.179C270.989 284.712 316.222 275.195 336.85 240.834C345.798 225.941 348.904 207.833 345.798 188.49C342.94 170.568 334.862 152.708 323.057 138.308C303.796 114.824 275.028 98.6326 242.035 92.7616C209.85 87.0143 176.422 91.3402 147.965 104.998C120.316 118.223 95.8974 139.853 77.4438 167.54C59.7979 193.99 48.1169 224.89 43.7054 256.841C43.2705 259.807 42.8977 262.897 42.587 265.863C41.0337 279.089 39.4182 292.685 33.2049 304.674C26.9294 316.787 13.8814 326.984 0.398468 326.984C-2.39753 326.984 -5.25566 326.551 -8.05166 325.562C-14.8863 323.152 -27.0645 315.489 -31.6623 290.892C-35.8253 268.521 -33.5263 244.728 -24.8277 220.131C-17.2474 198.81 -4.69647 176.995 11.4582 156.972C31.0302 132.808 54.5166 111.549 77.1953 91.0312C89.7462 79.66 102.732 67.918 114.91 55.8052C125.846 44.9284 136.843 32.8774 143.429 18.7252C150.575 3.21344 151.072 -13.5344 144.796 -26.1416C139.329 -37.142 123.36 -55.4966 78.3137 -55.4966C78.1894 -55.4966 78.0651 -55.4966 77.9409 -55.4966C35.0067 -55.4348 -7.3682 -44.0636 -44.5861 -22.7425L-45.5181 -24.3494C-8.05167 -45.8558 34.6339 -57.227 77.9409 -57.3506C92.7907 -57.4124 106.46 -55.1876 117.52 -51.047C131.313 -45.8558 141.006 -37.76 146.412 -26.945C152.936 -13.8433 152.439 3.52245 145.107 19.5286C138.459 33.9898 127.275 46.1644 116.215 57.1648C104.037 69.2776 90.9889 81.0815 78.4379 92.4527C55.7593 112.97 32.335 134.106 12.8873 158.208C-3.20527 178.107 -15.6319 199.799 -23.1501 220.873C-31.7245 245.16 -34.0234 268.644 -29.9226 290.707C-25.5111 314.438 -14.0165 321.731 -7.5546 323.955C7.60593 329.208 24.1955 317.899 31.403 303.932C37.4299 292.252 39.0454 278.78 40.5987 265.74C40.9715 262.773 41.3443 259.683 41.7171 256.655C46.1286 224.396 57.9339 193.31 75.7662 166.613C94.4062 138.679 119.073 116.802 147.033 103.391C175.863 89.6098 209.664 85.1602 242.221 90.9694C275.711 96.964 304.852 113.341 324.362 137.196C336.353 151.842 344.617 170.012 347.475 188.243C350.582 208.019 347.413 226.559 338.28 241.823C319.329 273.403 280.123 284.465 246.26 284.465C242.532 284.465 238.866 284.342 235.262 284.094C232.404 283.909 229.422 283.662 226.502 283.353C205.19 281.499 183.195 279.645 168.283 293.179C155.856 304.427 152.749 325.624 161.137 342.434C168.407 357.08 183.505 368.884 202.518 374.817C218.797 379.946 235.946 380.75 256.574 380.441C308.393 379.575 348.469 372.716 382.767 358.749C403.395 350.344 421.849 339.158 437.569 325.439C454.531 310.73 467.455 293.859 476.091 275.319C495.042 234.593 490.32 186.265 464.41 155.056C449.809 137.443 429.056 125.145 408.987 113.217C383.078 97.8292 356.298 81.9466 343.561 54.6928C327.903 21.1972 341.635 -22.9898 373.509 -41.9006L374.441 -40.2937C343.312 -21.8773 329.954 21.259 345.238 53.9512C357.727 80.7106 383.078 95.728 409.919 111.672C430.113 123.662 450.989 136.083 465.839 153.882C492.246 185.647 497.03 234.778 477.769 276.122C469.008 294.909 455.898 311.966 438.749 326.86C422.843 340.703 404.203 351.951 383.388 360.479C348.904 374.57 308.58 381.491 256.512 382.356C254.151 382.418 251.666 382.418 249.18 382.418Z" fill="#F3F5F7"/>
</g>
<path d="M475.852 78.4864C502.276 52.2043 502.276 9.59256 475.852 -16.6896C449.428 -42.9717 406.587 -42.9717 380.163 -16.6895C353.739 9.59256 353.739 52.2043 380.163 78.4864C406.587 104.769 449.428 104.769 475.852 78.4864Z" fill="#FFEFBD"/>
<path d="M24.8672 298.786C27.6595 286.887 20.2252 274.99 8.2622 272.212C-3.70081 269.435 -15.6624 276.829 -18.4547 288.728C-21.2471 300.627 -13.8128 312.524 -1.8498 315.302C10.1132 318.079 22.0748 310.685 24.8672 298.786Z" fill="#FFEFBD"/>
<path d="M368.787 348.181C391.607 348.181 410.106 329.781 410.106 307.084C410.106 284.387 391.607 265.987 368.787 265.987C345.967 265.987 327.468 284.387 327.468 307.084C327.468 329.781 345.967 348.181 368.787 348.181Z" fill="#FFEFBD"/>
<path d="M38.6727 68.5979C68.2525 68.5979 92.2316 44.7474 92.2316 15.3263C92.2316 -14.0948 68.2525 -37.9453 38.6727 -37.9453C9.09292 -37.9453 -14.8862 -14.0948 -14.8862 15.3263C-14.8862 44.7474 9.09292 68.5979 38.6727 68.5979Z" fill="#FFEFBD"/>
<path d="M11.3518 131.861C19.165 124.09 19.165 111.49 11.3518 103.719C3.53872 95.948 -9.12885 95.948 -16.942 103.719C-24.7551 111.49 -24.7551 124.09 -16.942 131.861C-9.12884 139.632 3.53872 139.632 11.3518 131.861Z" fill="#11284C"/>
<path d="M110.685 277.173C107.019 281.252 76.0145 318.332 68.6207 331.619C67.2537 334.091 116.588 375.559 121.745 376.671C126.84 377.722 194.316 377.351 195.497 375.002C199.846 366.474 200.716 312.832 200.716 312.832L110.685 277.173Z" fill="#4573CA"/>
<path d="M121.745 376.671C121.496 376.609 121.186 376.486 120.689 376.239C129.014 355.227 137.713 331.434 137.837 331.186C138.024 330.63 138.707 330.321 139.266 330.507C139.826 330.692 140.136 331.372 139.95 331.928C139.888 332.175 131.251 355.659 122.988 376.609C122.366 376.671 121.993 376.671 121.745 376.671ZM193.012 329.518C169.587 333.102 140.882 322.658 137.154 320.062C137.34 319.383 137.651 318.394 138.024 317.096C138.831 314.253 140.571 308.382 141.193 307.455C141.565 307.084 141.628 306.405 141.317 305.972C140.944 305.478 140.261 305.416 139.764 305.787C139.018 306.343 138.272 308.444 135.911 316.416C135.787 316.911 135.601 317.405 135.476 317.838C131.313 315.984 115.656 308.073 101.117 288.544C100.619 289.101 100.185 289.719 99.6875 290.275C114.91 310.483 130.816 318.208 134.855 319.939C134.793 320.186 134.793 320.68 135.228 321.113C137.775 324.079 168.345 335.451 193.447 331.557C193.26 330.939 193.136 330.198 193.012 329.518ZM141.255 315.551C140.012 316.107 139.453 317.59 140.012 318.888C140.571 320.124 142.062 320.68 143.367 320.124C144.61 319.568 145.169 318.085 144.61 316.787C143.989 315.551 142.497 314.995 141.255 315.551Z" fill="#7FC1E2"/>
<path d="M236.132 151.472C223.954 146.899 192.515 138.37 192.515 138.37L106.771 277.853C106.771 277.853 117.768 303.006 146.66 314.068C175.49 325.192 192.701 319.444 192.701 319.444C192.701 319.444 211.838 258.262 225.01 214.199C238.182 170.197 236.132 151.472 236.132 151.472Z" fill="white"/>
<path d="M236.07 151.41C235.511 159.197 231.286 166.737 224.576 170.877C215.131 176.686 201.648 175.018 193.882 167.046C188.725 161.731 186.488 153.944 187.42 146.59L184.997 150.483C185.121 157.158 187.606 163.77 192.266 168.591C199.971 176.501 212.894 178.726 222.898 174.214C223.83 173.782 224.762 173.287 225.694 172.731C230.292 169.888 233.833 165.562 235.946 160.557C236.381 154.315 236.07 151.41 236.07 151.41C236.132 151.41 236.07 151.41 236.07 151.41Z" fill="#FFEFBD"/>
<path d="M151.879 21.0122C134.73 22.31 105.093 31.4564 108.572 67.7948C111.306 87.6944 123.174 133.365 124.292 138.618C126.218 148.011 78.2513 216.053 78.9969 235.396C79.2454 242.689 85.6451 252.33 85.0238 253.936C82.8491 259.375 81.358 263.392 81.0473 265.184C78.9348 276.555 95.9593 294.786 101.241 297.629C106.584 300.472 192.514 138.37 192.514 138.37C192.514 138.37 158.714 41.2208 151.879 21.0122Z" fill="#11284C"/>
<path d="M100.433 242.194C100.246 242.194 100.122 242.133 99.9978 242.009L84.0917 226.621C83.8431 226.374 83.8431 226.003 84.0917 225.756C84.3402 225.508 84.713 225.508 84.9615 225.756L100.246 240.588L116.587 211.912C116.774 211.603 117.147 211.542 117.457 211.665C117.768 211.851 117.83 212.221 117.706 212.53L100.992 241.885C100.868 242.071 100.743 242.194 100.557 242.194C100.495 242.194 100.495 242.194 100.433 242.194Z" fill="#E1EDFF"/>
<path d="M236.132 151.472C232.528 196.833 180.398 325.377 181.082 333.102C181.765 340.827 201.275 354.485 206.494 352.569C211.651 350.653 220.785 338.726 220.785 338.726C220.785 338.726 243.029 347.749 254.026 339.962C265.024 332.237 273.909 203.384 273.909 203.384L236.132 151.472Z" fill="#11284C"/>
<path d="M130.381 140.039C130.195 140.039 130.009 140.039 129.822 139.977C127.088 139.112 124.665 130.893 124.23 129.286C124.168 128.977 124.354 128.606 124.665 128.544C124.976 128.421 125.349 128.668 125.411 128.977C126.405 132.499 128.58 138.309 130.195 138.865C130.319 138.927 130.443 138.927 130.692 138.741C131.81 137.814 131.313 127.679 130.941 120.263C130.443 110.128 129.946 100.549 131.5 97.7678C131.686 97.4588 132.059 97.3352 132.37 97.5206C132.68 97.706 132.805 98.0768 132.618 98.3858C131.251 100.92 131.748 111.178 132.183 120.263C132.805 132.932 132.929 138.618 131.438 139.73C131.127 139.915 130.754 140.039 130.381 140.039Z" fill="#E1EDFF"/>
<path d="M244.955 263.639C235.138 314.068 241.165 330.568 245.204 342.99C248.435 342.681 251.541 341.754 254.027 340.024C254.337 339.777 254.71 339.468 255.021 338.973C244.583 323.152 242.843 292.932 244.955 263.639Z" fill="#E1EDFF"/>
<path d="M243.34 181.63C244.334 183.793 243.34 186.327 241.165 187.316C238.99 188.305 236.443 187.316 235.449 185.153C234.455 182.99 235.449 180.456 237.623 179.467C239.798 178.479 242.345 179.529 243.34 181.63ZM226.564 212.592C224.389 213.581 223.457 216.115 224.389 218.278C225.383 220.441 227.931 221.368 230.105 220.441C232.28 219.452 233.212 216.918 232.28 214.755C231.286 212.592 228.738 211.665 226.564 212.592ZM216.871 246.211C214.696 247.2 213.764 249.734 214.696 251.897C215.69 254.06 218.238 254.987 220.412 254.06C222.587 253.071 223.519 250.537 222.587 248.374C221.655 246.211 219.045 245.223 216.871 246.211ZM205.252 278.595C203.077 279.583 202.145 282.117 203.077 284.28C204.071 286.443 206.619 287.37 208.793 286.443C210.968 285.516 211.9 282.921 210.968 280.758C210.036 278.595 207.364 277.606 205.252 278.595ZM195 310.669C192.825 311.658 191.893 314.191 192.825 316.354C193.819 318.517 196.367 319.444 198.541 318.517C200.716 317.529 201.648 314.995 200.716 312.832C199.722 310.669 197.175 309.742 195 310.669Z" fill="#E1EDFF"/>
<path d="M171.638 149.062C172.446 149 173.191 149.124 173.937 149.247C174.682 149.433 175.304 149.68 175.987 149.989C176.609 150.298 177.23 150.669 177.851 151.101C178.41 151.534 178.97 152.09 179.405 152.77C179.777 153.388 179.591 154.191 179.032 154.562C178.845 154.686 178.659 154.747 178.473 154.747C177.603 154.809 176.857 154.747 176.174 154.562C175.428 154.377 174.807 154.129 174.123 153.82C173.502 153.511 172.881 153.141 172.259 152.708C171.7 152.275 171.141 151.719 170.706 151.039C170.333 150.421 170.457 149.618 171.079 149.247C171.203 149.124 171.389 149.062 171.638 149.062ZM155.235 177.366C154.613 177.737 154.427 178.54 154.8 179.158C155.235 179.838 155.732 180.333 156.291 180.765C156.85 181.198 157.409 181.569 158.031 181.816C158.652 182.125 159.273 182.31 159.957 182.496C160.64 182.619 161.324 182.743 162.132 182.619C162.318 182.619 162.504 182.557 162.629 182.434C163.25 182.063 163.436 181.26 163.064 180.642C162.629 179.962 162.132 179.467 161.572 179.035C161.013 178.602 160.454 178.231 159.833 177.984C159.211 177.675 158.59 177.49 157.906 177.304C157.223 177.181 156.54 177.057 155.732 177.181C155.545 177.181 155.359 177.243 155.235 177.366ZM140.82 207.772C140.136 208.081 139.888 208.884 140.198 209.502C140.571 210.244 141.006 210.738 141.503 211.233C142 211.727 142.56 212.098 143.119 212.469C143.678 212.839 144.299 213.087 144.983 213.334C145.666 213.519 146.35 213.705 147.157 213.643C147.344 213.643 147.53 213.581 147.654 213.519C148.338 213.21 148.586 212.407 148.276 211.727C147.903 210.985 147.468 210.491 146.971 209.997C146.474 209.502 145.915 209.131 145.356 208.761C144.796 208.39 144.175 208.143 143.492 207.895C142.808 207.71 142.125 207.525 141.317 207.586C141.13 207.586 140.944 207.648 140.82 207.772ZM124.603 235.211C123.982 235.52 123.733 236.323 124.106 236.941C124.541 237.683 125.038 238.301 125.597 238.795C126.156 239.29 126.716 239.784 127.399 240.155C128.02 240.526 128.704 240.835 129.387 241.144C130.133 241.391 130.878 241.576 131.748 241.576C131.935 241.576 132.183 241.515 132.37 241.453C132.991 241.144 133.24 240.34 132.929 239.722C132.556 238.981 131.997 238.363 131.438 237.868C130.878 237.374 130.319 236.88 129.636 236.509C129.014 236.138 128.331 235.829 127.585 235.582C126.84 235.335 126.094 235.149 125.286 235.149C124.976 235.087 124.789 235.149 124.603 235.211ZM105.714 267.1C105.093 267.471 104.907 268.212 105.217 268.83C105.652 269.572 106.149 270.128 106.709 270.622C107.268 271.117 107.889 271.549 108.51 271.92C109.132 272.291 109.815 272.6 110.561 272.847C111.306 273.094 112.052 273.218 112.922 273.218C113.108 273.218 113.357 273.156 113.543 273.033C114.165 272.662 114.413 271.92 114.04 271.302C113.605 270.561 113.108 270.004 112.549 269.51C111.99 269.016 111.369 268.583 110.747 268.212C110.126 267.841 109.442 267.532 108.697 267.347C107.951 267.1 107.206 266.976 106.336 266.976C106.149 266.976 105.963 267.038 105.714 267.1Z" fill="#E1EDFF"/>
<path d="M236.132 151.472C262.29 154.562 286.647 171.31 293.916 182.866C301.186 194.423 329.705 325.377 277.948 345.586C226.191 365.794 251.852 212.654 251.852 212.654L236.132 151.472Z" fill="#11284C"/>
<path d="M203.947 330.754C203.885 330.754 203.823 330.754 203.761 330.754C203.45 330.63 203.264 330.321 203.326 330.012C210.036 307.393 217.244 285.269 224.203 263.824C234.765 231.441 244.707 200.85 252.349 170.815C252.411 170.506 252.784 170.259 253.095 170.383C253.405 170.444 253.654 170.815 253.53 171.124C245.825 201.221 235.884 231.812 225.321 264.195C218.362 285.578 211.155 307.702 204.444 330.321C204.444 330.568 204.196 330.754 203.947 330.754Z" fill="#E1EDFF"/>
<path d="M258.065 58.4012C258.003 58.4012 257.941 58.4012 257.879 58.4012C257.568 58.2776 257.382 57.9686 257.444 57.6596C259.991 49.3784 260.799 40.4792 259.867 31.889C259.805 31.58 260.054 31.271 260.426 31.2092C260.799 31.1474 261.048 31.3946 261.11 31.7654C262.104 40.541 261.234 49.5638 258.625 58.0304C258.562 58.2158 258.314 58.4012 258.065 58.4012Z" fill="#E1EDFF"/>
<path d="M108.448 283.106C108.324 283.106 108.138 283.044 108.013 282.982C100.62 276.617 94.4062 267.47 88.9385 259.375C88.3793 258.571 87.8822 257.83 87.3851 257.026C87.1987 256.717 87.2609 256.346 87.5715 256.161C87.8822 255.976 88.255 256.037 88.4414 256.346C88.9385 257.088 89.4977 257.891 89.9947 258.695C95.4003 266.729 101.552 275.752 108.821 282.055C109.07 282.302 109.132 282.673 108.883 282.92C108.759 283.044 108.635 283.106 108.448 283.106Z" fill="#E1EDFF"/>
<path d="M220.723 45.5467C216.747 45.5467 208.297 41.7151 198.542 37.2655C188.352 32.6305 176.857 27.4393 170.395 26.8831C170.023 26.8831 169.774 26.5741 169.836 26.2033C169.836 25.8325 170.147 25.5853 170.52 25.6471C177.168 26.2033 188.29 31.2709 199.039 36.1531C208.235 40.3555 216.995 44.3107 220.723 44.3107C220.785 44.3107 220.786 44.3107 220.848 44.3107C221.283 44.3107 221.469 44.2489 221.531 44.1871C221.345 43.1365 216.871 39.8611 213.64 37.3891C206.557 32.0743 201.524 28.1191 201.462 25.3999C201.462 24.7201 201.711 24.1639 202.27 23.7313C202.518 23.5459 202.953 23.5459 203.14 23.7931C203.326 24.0403 203.326 24.4729 203.078 24.6583C202.829 24.8437 202.767 25.0291 202.767 25.3381C202.829 27.6865 209.539 32.6923 214.448 36.4003C220.91 41.2207 223.271 43.1365 222.836 44.5579C222.525 45.4231 221.345 45.4849 220.972 45.4849C220.785 45.5467 220.723 45.5467 220.723 45.5467Z" fill="#E1EDFF"/>
<path d="M141.814 294.539C138.396 295.466 139.887 307.27 136.657 302.758C133.426 298.309 136.222 282.859 132.991 284.898C132.059 285.516 131.437 287.679 131.251 290.584C130.567 300.657 136.532 310.051 145.914 313.759C145.977 313.759 145.977 313.82 146.039 313.82C144.485 307.579 144.547 293.797 141.814 294.539Z" fill="#FFEFBD"/>
<path d="M159.957 318.332C166.915 320.186 174.869 303.871 180.398 307.702C185.555 311.287 177.727 316.725 173.129 318.394C168.531 320.062 159.957 318.332 159.957 318.332Z" fill="#FFEFBD"/>
<path opacity="0.4" d="M213.392 371.294C183.443 309.185 169.65 239.413 173.75 170.63C174.434 158.95 175.739 147.022 180.772 136.454C183.443 138.741 186.736 141.213 189.346 143.5C178.97 220.997 192.888 301.275 232.031 369.07L213.392 371.294Z" fill="#8E79B0"/>
<path d="M215.504 360.047C185.556 297.938 171.762 228.166 175.863 159.382C176.546 147.702 177.851 135.775 182.884 125.207C185.556 127.494 188.849 129.966 191.458 132.252C181.082 209.749 195 290.028 234.144 357.822" fill="#FCC10F"/>
<path d="M303.795 42.3331C302.925 41.7769 295.283 35.5351 293.543 34.9789C291.804 34.4227 269.436 34.2991 269.436 34.2991L271.362 55.8055C271.362 55.8055 282.67 67.6093 285.031 69.3397C287.33 71.0701 295.469 73.1713 296.712 73.1713C297.458 73.1713 301.372 71.1319 304.168 69.5869C305.784 68.6599 306.281 66.5587 305.224 65.0755C304.417 63.9631 302.925 63.4687 301.621 63.9631L296.029 65.8789L292.611 62.6653L297.085 63.3451L302.366 56.1145L302.304 44.2489L303.795 42.3331Z" fill="#BA623B"/>
<path d="M290.996 53.5189L300.44 52.7155L302.304 52.7773V44.3107L303.733 42.3949C302.863 41.8387 295.532 35.7823 293.605 35.1025C293.17 41.5297 285.901 46.7827 285.901 46.7827C289.008 52.6537 289.132 59.3899 289.132 59.3899C291.431 56.5471 290.996 53.5189 290.996 53.5189Z" fill="#9B3D2F"/>
<path d="M317.278 67.3004L297.023 63.407C295.532 63.2216 294.475 61.862 294.6 60.3788C294.724 58.8338 296.153 57.6596 297.706 57.845L317.962 61.553C319.453 61.7384 320.572 63.0362 320.447 64.5812V64.8284C320.385 66.3116 318.894 67.4858 317.278 67.3004Z" fill="#BA623B"/>
<path d="M318.583 59.328L301.31 58.71C299.819 58.71 298.576 57.5358 298.514 56.0526C298.452 54.5076 299.632 53.148 301.248 53.0862L318.521 53.457C320.012 53.3952 321.317 54.5694 321.441 56.0526V56.2998C321.503 57.9066 320.199 59.328 318.583 59.328Z" fill="#BA623B"/>
<path d="M302.677 53.2718H294.165C292.673 53.2718 291.431 52.0976 291.369 50.6144C291.306 49.0694 292.487 47.7098 294.102 47.648L302.553 47.4008C304.044 47.339 305.349 48.5132 305.473 49.9964V50.2436C305.597 51.9122 304.292 53.2718 302.677 53.2718Z" fill="#BA623B"/>
<path d="M302.428 47.8333H296.836C295.345 47.8333 294.103 46.6591 294.04 45.1759C293.978 43.6309 295.159 42.2713 296.774 42.2095L302.366 41.9623C303.857 41.9005 305.162 43.0747 305.287 44.5579V44.8051C305.349 46.4737 304.106 47.8333 302.428 47.8333Z" fill="#BA623B"/>
<path d="M256.512 29.3551C256.512 29.3551 267.075 26.5123 273.288 32.2597C276.643 35.3497 277.451 48.1423 272.791 57.2887C268.131 66.3733 251.355 61.8001 251.355 61.8001L256.512 29.3551Z" fill="#11284C"/>
<path d="M158.341 53.7043C159.832 61.1203 161.883 71.8735 163.25 79.2895C166.232 77.6827 167.786 73.2949 168.78 72.9859C176.111 70.7611 240.916 75.8905 251.355 68.3509C261.793 60.8731 268.876 36.7093 257.506 24.6583C246.198 12.6073 151.879 21.0121 151.879 21.0121C153.93 31.8889 156.167 42.7657 158.341 53.7043Z" fill="#11284C"/>
<path d="M298.7 196.957C289.629 184.782 270.74 173.596 256.698 167.787C241.165 161.36 225.569 154.933 209.353 150.359C202.145 148.32 194.938 146.281 187.606 144.736C168.842 140.78 154.924 124.774 153.495 105.74C153.495 105.493 153.433 105.307 153.433 105.06C152.066 85.6549 164.555 67.4239 183.132 61.4293C223.395 48.3895 261.234 73.9129 287.579 101.785C299.695 114.577 307.71 131.078 310.381 148.382C312.991 165.191 306.653 182.187 298.7 196.957Z" fill="#202020"/>
<path d="M275.587 177.428C278.942 168.529 283.788 151.534 282.049 130.398C279.936 104.627 270.492 88.5595 263.16 79.8456C260.24 77.6826 257.195 75.5814 254.151 73.6656C276.084 90.7225 280.433 146.281 265.956 172.051C269.125 173.658 272.356 175.45 275.587 177.428Z" fill="#474747"/>
<path d="M185.058 114.083C185.058 114.083 179.466 107.841 174.496 113.156C169.525 118.471 179.28 131.943 185.618 130.336C188.786 129.533 188.911 124.527 188.911 124.527L185.058 114.083Z" fill="#BA623B"/>
<path opacity="0.4" d="M175.863 117.297C180.026 117.791 183.94 120.696 185.369 124.713C185.618 125.392 185.68 126.134 185.431 126.814C185.183 127.494 184.561 128.05 183.816 128.05C182.822 128.05 182.076 127.123 181.579 126.196C180.833 124.651 180.399 122.859 180.461 121.128C179.342 119.892 177.416 118.038 175.863 117.297Z" fill="#6C3317"/>
<path d="M185.059 114.083C185.059 114.083 179.467 107.841 174.496 113.156C173.875 113.774 173.502 114.577 173.315 115.381C174.434 114.639 175.801 114.145 177.106 113.898C179.777 113.403 182.511 113.836 185.183 114.392L185.059 114.083Z" fill="#CC744F"/>
<path d="M236.691 102.835C236.691 102.835 239.177 94.8014 245.887 97.6442C252.66 100.425 249.429 116.74 242.967 117.853C239.798 118.409 237.561 113.959 237.561 113.959L236.691 102.835Z" fill="#BA623B"/>
<path opacity="0.4" d="M246.384 102.032C242.781 104.195 240.482 108.521 240.854 112.662C240.917 113.403 241.165 114.083 241.662 114.577C242.159 115.072 242.967 115.319 243.65 115.01C244.582 114.577 244.893 113.403 244.893 112.414C244.955 110.684 244.582 108.892 243.775 107.347C244.334 105.802 245.328 103.33 246.384 102.032Z" fill="#6C3317"/>
<path d="M236.691 102.835C236.691 102.835 239.177 94.8014 245.887 97.6442C246.695 97.9532 247.378 98.5094 247.875 99.1892C246.508 99.0038 245.079 99.0656 243.775 99.3746C241.165 100.054 238.866 101.538 236.691 103.144V102.835Z" fill="#CC744F"/>
<path d="M229.732 134.848L226.812 154.871C225.569 163.337 217.741 169.456 209.166 168.22C208.856 168.158 208.545 168.158 208.234 168.096C199.163 166.489 193.571 157.343 195.994 148.505L200.405 132.685L229.732 134.848Z" fill="#BA623B"/>
<path opacity="0.4" d="M195.683 155.118C207.489 154.933 219.294 150.792 228.49 143.438L229.732 134.848L221.717 134.23C216.933 134.477 212.211 134.724 207.427 134.971C204.755 135.095 202.083 135.28 199.536 136.022L196.056 148.506C195.435 150.73 195.311 152.955 195.683 155.118Z" fill="#6C3317"/>
<path d="M178.597 98.9419C177.292 88.6831 182.201 74.4073 202.518 70.0195C222.836 65.6317 233.274 76.5703 236.381 86.4583C237.126 88.9303 238.245 93.5035 238.928 99.1273C241.165 115.875 240.295 141.708 219.232 146.404C198.107 150.916 186.55 127.741 181.579 111.549C179.902 106.111 178.907 101.476 178.597 98.9419Z" fill="#BA623B"/>
<path d="M219.232 146.343C210.782 148.135 203.823 145.477 198.231 140.657L197.299 143.994C202.58 147.888 208.918 149.865 216.498 148.258C220.412 147.393 223.581 145.786 226.191 143.685C224.203 144.798 221.841 145.725 219.232 146.343Z" fill="#202020"/>
<path d="M190.464 112.662C190.464 112.662 191.893 107.532 197.733 106.852C203.885 106.173 207.426 111.92 207.426 111.92C207.426 111.92 204.506 108.954 200.219 108.768C196.056 108.645 190.464 112.662 190.464 112.662Z" fill="#CC744F"/>
<path d="M211.465 113.403C212.148 111.24 218.051 118.965 218.051 118.965C218.051 118.965 216.56 122.241 213.64 122.92C210.719 123.538 207.923 121.005 207.923 121.005C207.923 121.005 209.415 119.769 211.465 113.403Z" fill="#BA623B"/>
<path d="M207.923 121.004C207.923 121.004 209.849 122.735 212.086 122.982C212.583 123.044 213.08 123.044 213.577 122.92C216.498 122.302 217.989 118.965 217.989 118.965C217.989 119.089 215.255 120.139 212.708 120.572C210.284 121.066 207.923 121.004 207.923 121.004Z" fill="#9B3D2F"/>
<path d="M216.125 121.066C216.436 120.819 216.746 120.696 217.119 120.51C216.684 121.066 216.125 121.684 215.379 122.179C215.504 121.746 215.752 121.375 216.125 121.066Z" fill="#77312E"/>
<path d="M231.286 103.824C231.286 103.824 227.868 99.7453 222.214 101.599C216.374 103.515 215.566 110.251 215.566 110.251C215.566 110.251 216.933 106.358 220.785 104.38C224.575 102.464 231.286 103.824 231.286 103.824Z" fill="#CC744F"/>
<path d="M204.196 128.73C203.699 129.409 202.953 130.151 202.021 130.336C201.835 130.398 201.586 130.398 201.4 130.275C201.089 130.027 201.462 129.471 201.648 129.224C201.959 128.791 202.456 128.482 202.891 128.112C203.264 127.803 203.885 127.494 204.258 127.803C204.568 127.988 204.382 128.421 204.196 128.73Z" fill="#B35133"/>
<path d="M224.948 124.218C225.694 124.651 226.626 124.96 227.62 124.774C227.806 124.713 228.055 124.651 228.117 124.465C228.303 124.156 227.744 123.724 227.433 123.6C226.936 123.353 226.377 123.229 225.818 123.106C225.321 122.982 224.699 122.982 224.451 123.353C224.264 123.662 224.637 124.033 224.948 124.218Z" fill="#B35133"/>
<path d="M206.37 128.915C207.737 128.173 210.16 125.331 215.007 126.814C218.797 123.477 222.214 125.083 223.768 125.145C225.321 125.207 226.998 123.786 226.998 123.786C226.998 123.786 223.954 128.482 215.752 130.275C207.613 132.067 202.829 129.039 202.829 129.039C202.829 129.039 205.003 129.657 206.37 128.915Z" fill="#802727"/>
<path d="M204.32 129.471C204.32 129.471 206.743 131.449 215.628 129.533C224.637 127.617 225.88 124.774 225.88 124.774L226.998 123.724C226.998 123.724 224.762 132.438 216.684 134.23C208.545 135.96 202.891 128.977 202.891 128.977L204.32 129.471Z" fill="#802727"/>
<path d="M215.628 129.595C218.797 128.915 220.226 129.409 223.146 127.308C221.904 128.421 219.605 129.78 215.877 130.584C212.149 131.387 209.477 131.14 207.924 130.645C211.59 131.511 212.397 130.275 215.628 129.595Z" fill="#202020"/>
<path d="M226.44 117.667C226.813 119.274 228.987 120.201 231.348 119.707C233.709 119.212 235.325 117.482 234.952 115.813C234.579 114.207 232.405 113.28 230.043 113.774C227.682 114.268 226.067 115.999 226.44 117.667Z" fill="#CC744F"/>
<path d="M200.654 123.229C201.027 124.836 199.411 126.628 197.05 127.123C194.689 127.617 192.515 126.69 192.142 125.083C191.769 123.477 193.385 121.684 195.746 121.19C198.107 120.696 200.343 121.623 200.654 123.229Z" fill="#CC744F"/>
<path d="M212.956 98.2622C213.018 98.0768 213.329 97.8296 213.826 97.4588C213.391 98.8184 213.267 99.9926 213.453 100.734C213.453 100.734 213.64 98.942 214.572 96.9644C216.622 95.7284 220.164 93.998 222.649 93.2564C226.315 92.2058 229.919 94.4924 230.291 94.9868C230.664 95.4812 227.123 95.1104 225.942 95.4812C224.824 95.9138 214.137 103.392 213.329 102.712C212.211 101.723 212.583 99.1274 212.956 98.2622ZM231.658 94.9868C231.783 94.9868 229.857 93.4418 229.297 93.1328C228.738 92.8238 228.241 92.8238 227.993 92.8856C227.744 92.9474 229.732 93.8744 230.291 94.1834C230.789 94.4924 231.658 94.9868 231.658 94.9868Z" fill="#202020"/>
<path d="M224.14 93.0092C224.451 93.0092 224.761 93.0092 225.134 93.0092C224.016 93.8744 222.959 94.8632 222.09 96.0374C221.282 97.088 220.598 98.1386 220.039 99.3128C219.791 99.4982 219.48 99.6836 219.231 99.8072C220.226 97.2116 221.965 94.8632 224.14 93.0092Z" fill="#331111"/>
<path d="M217.181 97.706C217.492 96.779 217.865 95.852 218.3 94.9868C219.107 94.616 219.977 94.2452 220.847 93.8744C219.045 96.0992 217.616 98.633 216.622 101.29C216.436 101.414 216.249 101.476 216.125 101.599C216.374 100.302 216.746 99.0038 217.181 97.706Z" fill="#474747"/>
<path d="M206.246 104.257C205.811 105.184 193.012 102.835 191.769 102.897C190.588 103.021 187.482 104.813 187.606 104.195C187.73 103.577 190.091 100.054 193.882 99.4364C196.491 99.0656 200.406 99.1274 202.829 99.4364C204.568 100.858 205.438 102.403 205.438 102.403C205.252 101.661 204.631 100.672 203.699 99.56C204.258 99.6836 204.693 99.8072 204.817 99.9308C205.5 100.611 206.867 102.835 206.246 104.257ZM187.42 103.453C187.792 102.959 189.221 101.29 188.973 101.352C188.724 101.414 188.29 101.599 187.855 102.094C187.42 102.588 186.363 104.813 186.488 104.751C186.425 104.751 187.047 104.01 187.42 103.453Z" fill="#202020"/>
<path d="M192.452 99.869C192.142 99.9926 191.831 100.116 191.583 100.24C192.949 100.549 194.316 101.043 195.621 101.723C196.74 102.341 197.858 103.021 198.852 103.824C199.163 103.886 199.473 103.886 199.784 103.948C197.734 102.094 195.186 100.672 192.452 99.869Z" fill="#331111"/>
<path d="M200.716 101.229C200.033 100.549 199.349 99.869 198.541 99.251C197.609 99.251 196.677 99.251 195.808 99.3128C198.417 100.549 200.778 102.279 202.767 104.319C202.953 104.319 203.139 104.38 203.326 104.38C202.518 103.33 201.71 102.217 200.716 101.229Z" fill="#474747"/>
<path d="M190.526 112.353C192.577 110.128 196.367 108.397 199.225 108.336C202.394 108.274 205.376 109.757 207.427 111.982C204.693 110.375 202.145 109.819 199.163 110.251C196.367 110.684 194.006 111.982 191.769 114.145L188.352 112.291L190.526 112.353Z" fill="#202020"/>
<path d="M221.469 103.515C224.078 102.403 228.303 102.403 231.099 103.577L233.088 102.588L230.727 105.678C227.806 104.628 225.072 104.442 222.339 105.184C219.418 105.987 217.368 107.594 215.504 110.19C216.436 107.347 218.548 104.689 221.469 103.515Z" fill="#202020"/>
<path d="M210.347 107.718C210.906 109.324 210.968 111.117 210.719 112.785C210.471 114.516 209.912 116.122 209.352 117.667C209.042 118.471 208.793 119.212 208.607 119.954C208.545 120.325 208.483 120.696 208.545 120.819C208.607 121.005 208.793 121.252 209.104 121.437C209.663 121.87 210.409 122.179 211.216 122.426C212.024 122.673 212.77 122.859 213.64 122.859C212.832 123.229 211.962 123.291 211.092 123.229C210.657 123.229 210.222 123.106 209.787 122.982C209.352 122.859 208.918 122.735 208.483 122.488C208.048 122.241 207.613 121.932 207.364 121.314C207.178 120.696 207.24 120.201 207.364 119.707C207.551 118.78 207.861 118.038 208.172 117.235C208.793 115.69 209.415 114.145 209.85 112.6C210.222 111.055 210.471 109.386 210.347 107.718Z" fill="#6C3317"/>
<path d="M182.325 113.836C184.065 118.656 186.798 121.499 186.301 114.206C185.804 106.914 183.878 101.352 183.878 101.352C183.878 101.352 198.231 94.3069 196.429 80.8963C196.429 80.8963 209.291 101.537 233.336 92.3911C233.336 92.3911 237.437 113.032 239.177 101.476C240.917 89.9191 236.07 58.7101 199.039 69.1543C160.827 79.9075 182.325 113.836 182.325 113.836Z" fill="#202020"/>
<path opacity="0.4" d="M233.274 92.453C207.116 104.504 196.367 80.9581 196.367 80.9581C200.716 97.0879 183.816 101.414 183.816 101.414C183.816 101.414 198.169 94.3687 196.367 80.9581C196.429 80.8963 209.291 101.538 233.274 92.453Z" fill="#6C3317"/>
<path d="M272.542 212.778C272.542 212.778 274.157 190.468 274.654 186.327C275.152 182.187 272.107 179.591 270.057 184.535C268.006 189.479 264.589 204.187 264.589 204.187L272.542 212.778Z" fill="#BA623B"/>
<path d="M236.443 222.171L259.183 227.301C261.047 227.733 262.849 226.559 263.284 224.767L275.027 173.411C275.462 171.557 274.282 169.765 272.48 169.332L249.739 164.203C247.875 163.77 246.073 164.944 245.638 166.737L233.895 218.092C233.46 219.946 234.641 221.739 236.443 222.171Z" fill="#FCC10F"/>
<path d="M269.56 181.63L270.802 176.192C271.237 174.276 270.057 172.36 268.068 171.928C266.142 171.495 264.216 172.669 263.781 174.647L262.539 180.085C262.104 182.001 263.284 183.917 265.272 184.349C267.136 184.782 269.063 183.608 269.56 181.63Z" fill="#E38D21"/>
<path d="M265.459 175.141C265.21 176.13 265.831 177.119 266.826 177.304C267.82 177.551 268.814 176.933 269 175.945C269.249 174.956 268.627 173.967 267.633 173.782C266.701 173.534 265.707 174.152 265.459 175.141Z" fill="#202020"/>
<path d="M264.278 180.332C264.03 181.321 264.651 182.31 265.645 182.495C266.64 182.681 267.634 182.125 267.82 181.136C268.069 180.147 267.447 179.158 266.453 178.973C265.459 178.787 264.527 179.344 264.278 180.332Z" fill="#F9F9EF"/>
<path d="M272.48 238.857C272.48 238.857 272.853 214.693 272.48 212.221C272.107 209.811 253.715 192.569 252.162 190.715C249.801 187.872 247.999 191.951 250.36 195.659C252.411 198.749 261.606 212.098 261.606 212.098C261.606 212.098 244.955 203.322 242.034 202.21C239.052 201.097 238.679 205.053 243.339 208.637C247.999 212.221 258.624 219.823 258.624 219.823C258.624 219.823 242.097 216.671 240.419 216.547C237.126 216.362 235.075 219.884 244.147 222.356C250.919 224.21 255.704 227.362 255.704 227.362C255.704 227.362 253.405 230.576 257.381 236.014L257.195 239.846L264.402 238.363L272.48 238.857Z" fill="#BA623B"/>
<path d="M296.712 313.079C296.65 313.079 296.65 313.079 296.712 313.079C296.339 313.079 296.091 312.77 296.091 312.461C296.091 312.09 297.831 274.825 290.685 263.145C286.46 256.347 279.874 255.543 279.812 255.543C279.501 255.481 279.253 255.234 279.253 254.863C279.501 251.835 279.75 243.678 277.327 241.885C271.921 237.807 258.811 238.116 254.337 242.442C252.535 244.172 251.541 246.891 251.728 255.481C251.728 255.852 251.479 256.099 251.106 256.099C250.796 256.099 250.485 255.852 250.485 255.481C250.299 246.397 251.417 243.616 253.467 241.576C258.376 236.818 272.17 236.447 278.072 240.958C281.117 243.245 280.682 251.959 280.495 254.493C282.297 254.863 287.889 256.408 291.679 262.588C294.786 267.656 296.712 277.606 297.271 292.252C297.706 303.067 297.271 312.585 297.271 312.646C297.271 312.832 297.023 313.079 296.712 313.079Z" fill="#E1EDFF"/>
<path d="M253.654 337.366C253.281 337.366 253.032 337.057 253.032 336.687C253.032 336.501 252.722 335.821 252.411 335.142C250.423 330.63 245.079 318.579 243.774 289.224C243.277 279.027 243.961 261.6 246.011 258.571C251.417 250.599 275.587 253.936 276.643 254.06C276.954 254.122 277.202 254.431 277.14 254.74C277.078 255.049 276.767 255.296 276.457 255.234C276.208 255.172 252.038 251.897 247.067 259.189C245.39 261.661 244.52 277.977 245.017 289.039C246.384 318.147 251.603 330.012 253.591 334.524C254.089 335.698 254.337 336.254 254.337 336.687C254.275 337.119 254.026 337.366 253.654 337.366Z" fill="#E1EDFF"/>
<path d="M101.552 184.164C97.8857 188.49 89.187 194.361 89.187 196.957C89.187 199.552 113.792 217.165 116.401 217.721C119.073 218.278 130.319 205.361 130.319 205.361L101.552 184.164Z" fill="#E1EDFF"/>
</g>
<defs>
<clipPath id="clip0_111_1918">
<rect width="466" height="309" fill="white" transform="translate(-38)"/>
</clipPath>
</defs>
</svg>
