<svg width="375" height="309" viewBox="0 0 375 309" fill="none" xmlns="http://www.w3.org/2000/svg">
<g clip-path="url(#clip0_116_1855)">
<path d="M419.753 -0.0617676H-44.2473V308.938H419.753V-0.0617676Z" fill="black"/>
<g opacity="0.3">
<path d="M398.47 178.231C370.445 178.231 343.595 171.557 321.879 158.641C301.154 146.342 286.615 128.111 279.872 106.049C273.809 86.2727 276.222 64.9517 278.511 44.3723C279.191 38.5631 279.81 32.5685 280.305 26.7593C280.614 23.1749 280.986 19.4669 281.419 15.8207C283.027 1.35953 284.759 -13.5961 278.635 -27.0067C270.592 -44.5579 248.258 -63.4687 209.715 -63.8395C179.895 -64.1485 150.138 -54.6931 125.948 -37.2655C103.738 -21.2593 86.6624 0.865135 70.144 22.2479C67.9787 25.0289 65.8133 27.8717 63.648 30.6527C45.8304 53.4569 24.4245 78.9185 -4.4672 92.8853C-18.7584 99.7451 -35.0293 103.021 -50.3104 102.094C-67.0144 101.043 -81.5531 95.1719 -92.3179 85.0985L-91.0805 83.7389C-80.5632 93.5033 -66.4576 99.2507 -50.1867 100.24C-35.2149 101.167 -19.2533 97.9529 -5.27147 91.2167C23.2491 77.4353 44.4693 52.1591 62.1632 29.5403C64.3286 26.7593 66.4939 23.9783 68.6592 21.1355C85.3013 -0.370872 102.438 -22.5571 124.772 -38.6869C149.271 -56.3617 179.462 -65.9407 209.653 -65.6317C224.192 -65.5081 238.731 -62.2327 250.609 -56.5471C264.405 -49.9345 274.675 -39.9229 280.305 -27.6865C286.615 -13.8433 284.945 1.35953 283.275 16.0679C282.842 19.6523 282.47 23.3603 282.161 26.9447C281.728 32.8157 281.047 38.8103 280.367 44.6195C278.078 65.0135 275.727 86.0873 281.666 105.554C288.286 127.184 302.515 144.983 322.869 157.096C356.277 176.933 401.997 181.816 445.18 170.197C463.925 165.13 480.382 157.405 494.178 147.084L495.292 148.567C481.31 159.011 464.668 166.86 445.675 171.989C430.022 176.192 414.061 178.231 398.47 178.231Z" fill="#F3F5F7"/>
<path d="M349.905 325.81C346.997 301.213 336.233 277.049 318.786 255.852C302.33 235.952 280.8 219.514 256.548 208.266C215.593 189.355 165.109 182.434 102.253 187.13C94.9526 187.687 87.5286 188.366 80.2902 189.046C57.5852 191.147 34.0758 193.31 10.9996 191.456C-23.9551 188.614 -53.218 175.945 -71.345 155.736L-69.9839 154.5C-52.1044 174.338 -23.3364 186.821 11.1852 189.602C34.1377 191.456 57.5233 189.293 80.1665 187.192C87.343 186.512 94.8289 185.833 102.129 185.276C165.357 180.58 216.088 187.501 257.353 206.597C281.914 217.969 303.629 234.593 320.271 254.678C337.965 276.122 348.915 300.657 351.823 325.624L349.905 325.81Z" fill="#F3F5F7"/>
<path d="M419.876 122.92C409.854 122.92 399.584 120.819 389.933 116.678C375.209 110.375 362.835 99.745 355.102 86.7052C347.43 73.7272 344.028 57.7828 345.574 41.8384C347.121 25.894 353.493 10.8766 363.516 -0.432785C382.385 -21.8156 421.361 -34.9172 447.098 -19.529C460.646 -11.4332 471.968 -0.741785 479.887 11.371C488.548 24.7198 492.755 39.5518 491.889 54.2602C491.023 69.3394 484.836 84.4186 474.504 96.7168C464.173 109.015 450.376 117.667 435.652 121.128C430.517 122.302 425.197 122.92 419.876 122.92ZM364.196 0.123415L364.877 0.741415C355.102 11.8036 348.915 26.4502 347.43 41.962C345.946 57.5356 349.225 73.0474 356.71 85.7164C364.196 98.3854 376.26 108.768 390.675 114.948C405.09 121.128 420.928 122.673 435.219 119.274C464.791 112.29 488.363 84.295 490.095 54.1366C490.899 39.8608 486.878 25.3996 478.34 12.3598C470.607 0.494215 459.471 -10.0118 446.17 -17.9222C434.6 -24.8438 419.258 -26.2034 402.987 -21.8774C388.2 -17.9222 373.971 -9.45558 364.939 0.803215L364.196 0.123415Z" fill="#F3F5F7"/>
</g>
<path d="M-35.8335 71.6263C2.6397 71.6263 33.8284 40.4712 33.8284 2.03944C33.8284 -36.3923 2.6397 -67.5474 -35.8335 -67.5474C-74.3067 -67.5474 -105.495 -36.3923 -105.495 2.03944C-105.495 40.4712 -74.3067 71.6263 -35.8335 71.6263Z" fill="white"/>
<path d="M404.162 63.4686C424.048 63.4686 440.169 47.3654 440.169 27.501C440.169 7.63669 424.048 -8.46655 404.162 -8.46655C384.276 -8.46655 368.156 7.63669 368.156 27.501C368.156 47.3654 384.276 63.4686 404.162 63.4686Z" fill="white"/>
<path d="M3.08901 373.881C28.3364 348.66 28.3364 307.77 3.08901 282.55C-22.1584 257.33 -63.0925 257.33 -88.34 282.55C-113.587 307.77 -113.587 348.66 -88.34 373.881C-63.0925 399.101 -22.1584 399.101 3.08901 373.881Z" fill="white"/>
<path d="M21.6729 162.139C31.2645 152.558 31.2645 137.023 21.6729 127.442C12.0813 117.861 -3.46974 117.861 -13.0613 127.442C-22.6529 137.023 -22.6529 152.558 -13.0613 162.139C-3.46974 171.72 12.0813 171.72 21.6729 162.139Z" fill="#AFDBEE"/>
<path d="M263.182 5.72659C265.039 -4.69008 258.091 -14.6381 247.663 -16.4929C237.235 -18.3476 227.276 -11.4069 225.419 -0.990202C223.563 9.42647 230.511 19.3745 240.939 21.2292C251.367 23.084 261.325 16.1433 263.182 5.72659Z" fill="#AFDBEE"/>
<path d="M139.002 328.22L155.396 149.371H220.604L236.999 328.22H139.002Z" fill="white"/>
<path d="M140.734 139.853C140.734 139.853 112.337 143.376 92.2925 154.809C45.8306 181.383 -18.1395 226.25 10.1954 274.516C38.5303 322.72 146.302 256.717 146.302 256.717L120.566 198.749L140.734 139.853Z" fill="#1A2244"/>
<path d="M76.2071 164.388C88.333 177.675 98.1698 209.564 98.1698 209.564L93.6535 211.727C86.2295 189.293 76.3927 173.72 71.7527 167.169C73.2994 166.242 74.7842 165.315 76.2071 164.388Z" fill="#E8A52A"/>
<path d="M66.7415 170.444C78.4343 184.288 87.7762 214.508 87.7762 214.508L83.2599 216.671C76.269 195.597 67.1746 180.58 62.2871 173.411C63.7719 172.422 65.2567 171.433 66.7415 170.444Z" fill="#E8A52A"/>
<path d="M161.645 150.854L148.405 328.22L90.0652 331.433L105.284 157.714L139.435 134.848L161.645 150.854Z" fill="#1A2244"/>
<path d="M137.146 128.977C111.1 143.932 104.047 161.422 104.047 161.422C104.047 161.422 131.701 160.495 132.691 163.646C133.619 166.798 95.1382 177.613 95.1382 177.613C95.1382 177.613 125.7 244.79 135.537 279.645C145.188 313.82 148.405 328.158 148.405 328.158L161.707 149.309L137.146 128.977Z" fill="#323770"/>
<path d="M149.395 315.118C138.074 265.555 104.851 188.305 101.201 179.962C103.614 179.282 111.347 177.181 118.895 174.523C135.785 168.59 137.022 165.315 136.527 163.337C135.042 157.466 115.925 157.899 110.172 158.146C113.08 154.067 123.659 139.977 136.156 134.415C136.527 134.291 136.651 133.859 136.527 133.488C136.403 133.117 135.97 132.994 135.599 133.117C120.627 139.792 108.749 157.714 108.254 158.455C108.13 158.702 108.13 158.95 108.254 159.197C108.378 159.444 108.625 159.568 108.873 159.506C118.524 158.888 134.176 159.506 135.228 163.585C136.218 167.478 115.307 174.77 100.088 178.787C99.902 178.849 99.7164 178.973 99.6546 179.158C99.5927 179.344 99.5927 179.529 99.6546 179.714C100.026 180.641 138.321 268.212 149.086 319.815L149.395 315.118Z" fill="#1A2244"/>
<path d="M128.361 214.94C128.361 214.94 149.581 197.204 152.241 194.979C154.221 193.31 164.924 186.883 170.244 183.67C172.1 182.557 174.389 182.681 176.122 183.855L185.216 190.097C186.144 190.777 186.825 191.704 187.134 192.816L188.619 198.687C189.052 200.356 188.248 202.086 186.701 202.828C184.783 203.755 182.494 202.828 181.752 200.788L180.329 196.833C179.896 195.721 179.091 194.794 178.04 194.237L175.75 193.063C173.771 192.074 171.42 192.322 169.749 193.743L160.222 201.777C158.923 202.889 157.624 204.064 156.386 205.238L135.104 225.694L128.361 214.94Z" fill="#BA623B"/>
<path opacity="0.4" d="M128.917 215.867L131.33 214.384L157.438 200.479C159.108 199.552 160.717 198.502 162.14 197.204L166.718 193.063C168.327 191.642 170.43 190.9 172.533 191.086L179.524 191.642C181.133 191.765 182.68 192.383 183.917 193.434L187.629 196.524C187.876 196.771 188.124 197.018 188.309 197.266L188.681 198.749C189.114 200.417 188.309 202.148 186.763 202.889C184.845 203.816 182.556 202.889 181.813 200.85L180.391 196.895C179.957 195.782 179.153 194.855 178.101 194.299L175.812 193.125C173.833 192.136 171.482 192.383 169.811 193.805L160.284 201.839C158.985 202.951 157.685 204.125 156.448 205.3L135.166 225.755L128.917 215.867Z" fill="#6C3317"/>
<path d="M128.361 214.94L121.06 219.452L130.464 239.969L145.374 236.756C145.374 236.756 157.747 235.767 164.429 234.716C168.574 234.098 175.503 233.975 178.225 235.087C179.896 235.829 181.195 237.188 181.875 238.857C182.494 240.34 184.041 241.144 185.587 240.773C187.072 240.402 188.124 238.981 187.938 237.436C187.691 234.84 186.763 231.008 183.669 228.66C178.596 224.828 166.347 223.098 166.347 223.098L161.892 213.148L168.265 200.665L176.307 201.406L179.524 203.693C181.442 205.052 184.164 204.558 185.464 202.58C186.577 200.85 186.206 198.502 184.659 197.142L180.947 194.052C179.71 193.001 178.163 192.383 176.555 192.26L169.564 191.704C167.46 191.518 165.295 192.26 163.748 193.681L159.17 197.822C157.747 199.12 156.201 200.232 154.468 201.097L128.361 214.94Z" fill="#BA623B"/>
<path opacity="0.4" d="M161.892 213.148L166.347 223.098C166.347 223.098 178.596 224.828 183.669 228.66C186.825 231.008 187.691 234.84 187.938 237.436C188.062 238.981 187.072 240.402 185.587 240.773C184.041 241.144 182.432 240.34 181.875 238.857C181.195 237.188 179.896 235.767 178.225 235.087C175.565 233.913 168.574 234.037 164.429 234.716C157.747 235.767 145.374 236.756 145.374 236.756L130.464 239.969L128.361 235.396C131.33 234.964 137.826 234.037 142.466 232.986C148.715 231.503 157.438 223.16 161.892 213.148Z" fill="#6C3317"/>
<path opacity="0.4" d="M92.2925 305.848L94.7053 278.409C116.482 270.622 135.29 262.094 146.302 256.779C146.302 256.779 111.719 289.904 92.2925 305.848Z" fill="#1A2244"/>
<path d="M53.1308 231.379L120.565 198.749L146.302 256.779C146.302 256.779 90.8076 290.769 49.0476 292.129L53.1308 231.379Z" fill="#1A2244"/>
<path d="M146.302 257.397C146.054 257.397 145.869 257.273 145.745 257.026L120.256 199.614L62.7201 227.486C62.4108 227.609 62.0396 227.486 61.9158 227.177C61.7921 226.868 61.9158 226.497 62.2252 226.373L120.318 198.254C120.442 198.193 120.627 198.193 120.813 198.254C120.998 198.316 121.122 198.44 121.184 198.563L146.921 256.594C147.044 256.903 146.921 257.273 146.611 257.397C146.426 257.335 146.364 257.397 146.302 257.397Z" fill="#323770"/>
<path d="M39.3964 279.089C39.3964 283.415 38.7158 287.617 37.4785 291.572C25.9094 289.966 16.1964 284.898 10.1334 274.516C2.83317 262.032 1.65771 249.796 4.81291 237.992C24.4865 241.391 39.3964 258.509 39.3964 279.089Z" fill="#323770"/>
<path d="M235.266 139.853C235.266 139.853 263.663 143.376 283.708 154.809C330.17 181.383 394.14 226.25 365.805 274.516C337.47 322.72 229.698 256.717 229.698 256.717L255.435 198.687L235.266 139.853Z" fill="#1A2244"/>
<path d="M299.793 164.388C287.667 177.675 277.831 209.564 277.831 209.564L282.347 211.727C289.771 189.293 299.608 173.72 304.248 167.169C302.701 166.242 301.216 165.315 299.793 164.388Z" fill="#E8A52A"/>
<path d="M309.259 170.444C297.566 184.288 288.224 214.508 288.224 214.508L292.74 216.671C299.731 195.597 308.826 180.58 313.713 173.411C312.228 172.422 310.744 171.433 309.259 170.444Z" fill="#E8A52A"/>
<path d="M214.355 150.854L227.595 328.22L285.935 331.433L270.716 157.714L236.566 134.848L214.355 150.854Z" fill="#1A2244"/>
<path d="M238.855 128.977C264.9 143.932 271.953 161.422 271.953 161.422C271.953 161.422 244.299 160.495 243.309 163.646C242.381 166.798 280.862 177.613 280.862 177.613C280.862 177.613 250.3 244.79 240.463 279.645C230.812 313.82 227.595 328.158 227.595 328.158L214.293 149.309L238.855 128.977Z" fill="#323770"/>
<path d="M226.605 315.118C237.927 265.555 271.149 188.305 274.799 179.962C272.386 179.282 264.653 177.181 257.105 174.523C240.216 168.59 238.978 165.315 239.473 163.337C240.958 157.466 260.075 157.899 265.828 158.146C262.921 154.067 252.342 139.977 239.844 134.415C239.473 134.291 239.35 133.859 239.473 133.488C239.597 133.117 240.03 132.994 240.401 133.117C255.373 139.792 267.251 157.714 267.746 158.455C267.87 158.702 267.87 158.95 267.746 159.197C267.623 159.444 267.375 159.568 267.128 159.506C257.476 158.888 241.824 159.506 240.772 163.585C239.783 167.478 260.694 174.77 275.913 178.787C276.098 178.849 276.284 178.973 276.346 179.158C276.408 179.344 276.408 179.529 276.346 179.714C275.975 180.641 237.679 268.212 226.914 319.815L226.605 315.118Z" fill="#1A2244"/>
<path opacity="0.4" d="M283.708 305.848L281.295 278.409C259.518 270.622 240.711 262.094 229.698 256.779C229.698 256.779 264.282 289.904 283.708 305.848Z" fill="#1A2244"/>
<path d="M247.64 214.94C247.64 214.94 226.419 197.204 223.759 194.979C221.779 193.31 211.076 186.883 205.756 183.67C203.9 182.557 201.611 182.681 199.878 183.855L190.784 190.097C189.856 190.777 189.176 191.704 188.866 192.816L187.381 198.687C186.948 200.356 187.753 202.086 189.299 202.828C191.217 203.755 193.506 202.828 194.249 200.788L195.672 196.833C196.105 195.721 196.909 194.794 197.961 194.237L200.25 193.063C202.229 192.074 204.58 192.322 206.251 193.743L215.778 201.777C217.077 202.889 218.377 204.064 219.614 205.238L240.896 225.694L247.64 214.94Z" fill="#BA623B"/>
<path opacity="0.4" d="M247.083 215.867L244.67 214.384L218.562 200.479C216.892 199.552 215.283 198.502 213.86 197.204L209.282 193.063C207.674 191.642 205.57 190.9 203.467 191.086L196.476 191.642C194.867 191.765 193.321 192.383 192.083 193.434L188.371 196.524C188.124 196.771 187.876 197.018 187.691 197.266L187.32 198.749C186.887 200.417 187.691 202.148 189.237 202.889C191.155 203.816 193.444 202.889 194.187 200.85L195.61 196.895C196.043 195.782 196.847 194.855 197.899 194.299L200.188 193.125C202.168 192.136 204.519 192.383 206.189 193.805L215.716 201.839C217.016 202.951 218.315 204.125 219.552 205.3L240.834 225.755L247.083 215.867Z" fill="#6C3317"/>
<path d="M247.64 214.94L254.94 219.452L245.536 239.969L230.626 236.756C230.626 236.756 218.253 235.767 211.571 234.716C207.426 234.098 200.497 233.975 197.775 235.087C196.105 235.829 194.805 237.188 194.125 238.857C193.506 240.34 191.96 241.144 190.413 240.773C188.928 240.402 187.876 238.981 188.062 237.436C188.309 234.84 189.237 231.008 192.331 228.66C197.404 224.828 209.653 223.098 209.653 223.098L214.108 213.148L207.736 200.665L199.693 201.406L196.476 203.693C194.558 205.052 191.836 204.558 190.537 202.58C189.423 200.85 189.794 198.502 191.341 197.142L195.053 194.052C196.29 193.001 197.837 192.383 199.445 192.26L206.436 191.704C208.54 191.518 210.705 192.26 212.252 193.681L216.83 197.822C218.253 199.12 219.8 200.232 221.532 201.097L247.64 214.94Z" fill="#BA623B"/>
<path opacity="0.4" d="M214.108 213.148L209.653 223.098C209.653 223.098 197.404 224.828 192.331 228.66C189.176 231.008 188.309 234.84 188.062 237.436C187.938 238.981 188.928 240.402 190.413 240.773C191.96 241.144 193.568 240.34 194.125 238.857C194.805 237.188 196.105 235.767 197.775 235.087C200.435 233.913 207.426 234.037 211.571 234.716C218.253 235.767 230.626 236.756 230.626 236.756L245.536 239.969L247.64 235.396C244.67 234.964 238.174 234.037 233.534 232.986C227.285 231.503 218.562 223.16 214.108 213.148Z" fill="#6C3317"/>
<path d="M322.869 231.379L255.435 198.749L229.698 256.779C229.698 256.779 285.193 290.769 326.953 292.129L322.869 231.379Z" fill="#1A2244"/>
<path d="M229.698 257.397C229.636 257.397 229.513 257.397 229.451 257.335C229.141 257.212 229.018 256.841 229.141 256.532L254.878 198.502C254.94 198.378 255.064 198.254 255.249 198.193C255.435 198.131 255.558 198.131 255.744 198.193L313.837 226.312C314.146 226.435 314.27 226.806 314.146 227.115C314.022 227.424 313.651 227.548 313.342 227.424L255.806 199.552L230.317 256.964C230.193 257.273 229.946 257.397 229.698 257.397Z" fill="#323770"/>
<path d="M336.604 279.089C336.604 283.415 337.285 287.617 338.522 291.572C350.091 289.966 359.804 284.898 365.867 274.516C373.167 262.032 374.343 249.796 371.187 237.992C351.514 241.391 336.604 258.509 336.604 279.089Z" fill="#323770"/>
<path d="M218.81 85.7165C218.81 85.7165 223.635 77.1881 230.564 82.0085C237.555 86.8907 229.822 104.627 222.212 104.318C218.438 104.133 217.077 98.5091 217.077 98.5091L218.81 85.7165Z" fill="#BA623B"/>
<path d="M230.008 87.1997C225.368 88.7447 221.656 93.1325 221.037 98.0147C220.913 98.8181 221.037 99.7451 221.47 100.425C221.903 101.105 222.769 101.599 223.635 101.414C224.811 101.167 225.429 99.9305 225.677 98.7563C226.172 96.7787 226.172 94.6775 225.677 92.6999C226.667 90.9695 228.461 88.3739 230.008 87.1997Z" fill="#9B3D2F"/>
<path d="M218.81 85.7165C218.81 85.7165 223.635 77.1881 230.564 82.0085C231.369 82.5647 231.987 83.3681 232.482 84.2333C230.997 83.6771 229.389 83.4299 227.78 83.4299C224.625 83.5535 221.656 84.6659 218.748 86.0255L218.81 85.7165Z" fill="#D17F49"/>
<path d="M223.697 115.01C215.778 113.156 188 110.313 188 110.313C188 110.313 160.222 113.156 152.303 115.01C125.577 121.252 188 163.646 188 163.646C188 163.646 250.424 121.252 223.697 115.01Z" fill="#C68487"/>
<path d="M162.202 110.004L164.367 140.224C165.295 153.511 176.431 163.77 189.794 163.708C203.714 163.646 214.912 152.399 214.974 138.494L215.098 105.987L162.202 110.004Z" fill="#BA623B"/>
<path opacity="0.4" d="M164.367 140.224C164.553 142.758 165.109 145.23 165.976 147.517C172.657 147.517 201.982 152.77 215.036 110.684V105.987L162.14 110.004L164.367 140.224Z" fill="#6C3317"/>
<path d="M162.697 116.369C165.295 121.313 168.327 125.887 171.667 129.595C176.06 134.415 179.71 136.454 186.825 136.516C193.878 136.516 197.59 134.477 201.982 129.595C207.364 123.662 211.881 115.504 215.16 107.099V105.925L162.264 109.942L162.697 116.369Z" fill="#202020"/>
<path d="M188 134.848C180.947 134.848 177.235 132.808 172.843 127.926C162.264 116.184 155.025 96.0371 153.85 81.8849C153.293 75.3341 153.355 69.8339 153.664 66.8057C154.716 54.8165 163.872 39.6755 188 39.6755C212.19 39.6755 221.284 54.7547 222.336 66.8057C222.584 69.8339 222.645 75.3341 222.15 81.8849C220.975 96.0371 213.737 116.184 203.157 127.926C198.765 132.808 195.053 134.848 188 134.848Z" fill="#BA623B"/>
<path d="M157.314 85.7165C157.314 85.7165 152.489 77.1881 145.559 82.0085C138.569 86.8907 146.302 104.627 153.911 104.318C157.685 104.133 159.046 98.5091 159.046 98.5091L157.314 85.7165Z" fill="#BA623B"/>
<path d="M146.116 87.1997C150.756 88.7447 154.468 93.1325 155.087 98.0147C155.211 98.8181 155.087 99.7451 154.654 100.425C154.221 101.105 153.355 101.599 152.488 101.414C151.313 101.167 150.694 99.9305 150.447 98.7563C149.952 96.7787 149.952 94.6775 150.447 92.6999C149.395 90.9695 147.663 88.3739 146.116 87.1997Z" fill="#9B3D2F"/>
<path d="M157.314 85.7165C157.314 85.7165 152.489 77.1881 145.559 82.0085C144.755 82.5647 144.137 83.3681 143.642 84.2333C145.126 83.6771 146.735 83.4299 148.343 83.4299C151.499 83.5535 154.468 84.6659 157.376 86.0255L157.314 85.7165Z" fill="#D17F49"/>
<path d="M182.246 79.1039C182.246 79.1039 184.102 88.3739 184.288 92.0201C184.288 92.0201 168.512 97.7675 163.068 87.1379C160.284 81.6995 165.171 74.4689 165.171 74.4689C165.171 74.4689 171.11 69.9575 182.246 79.1039Z" fill="#B95D38"/>
<path d="M193.754 79.1039C193.754 79.1039 191.898 88.3739 191.712 92.0201C191.712 92.0201 207.488 97.7675 212.932 87.1379C215.716 81.6995 210.829 74.4689 210.829 74.4689C210.829 74.4689 204.89 69.9575 193.754 79.1039Z" fill="#B95D38"/>
<path d="M212.252 85.4693C212.252 85.4693 209.406 79.9691 202.539 80.6489C195.424 81.3905 192.826 88.8683 192.826 88.8683C192.826 88.8683 195.362 84.7277 200.25 83.4917C204.952 82.2557 212.252 85.4693 212.252 85.4693Z" fill="#B35133"/>
<path d="M187.381 88.6211C185.587 88.6211 181.38 99.1889 181.38 99.1889C181.38 99.1889 184.103 102.897 187.938 102.897C191.712 102.897 194.496 98.9417 194.496 98.9417C194.496 98.9417 188.681 88.6211 187.381 88.6211Z" fill="#BA623B"/>
<path d="M194.496 98.9417C194.496 98.9417 192.64 101.599 189.856 102.588C189.299 102.773 188.619 102.897 188 102.897C184.226 102.897 181.442 99.1888 181.442 99.1888C186.206 101.228 190.97 100.178 193.197 99.436C194.001 99.1888 194.496 98.9417 194.496 98.9417Z" fill="#9B3D2F"/>
<path d="M184.35 101.228C183.917 101.043 183.484 100.919 182.989 100.796C183.67 101.414 184.598 102.032 185.649 102.402C185.34 101.97 184.907 101.537 184.35 101.228Z" fill="#77312E"/>
<path d="M212.932 85.7165C210.21 83.2445 204.828 81.9467 201.24 82.6265C197.651 83.3063 194.62 85.7783 192.826 88.8683C195.548 86.3963 198.332 85.0367 201.796 84.8513C205.075 84.6659 208.107 85.5311 211.2 87.4469L212.932 85.7165Z" fill="#202020"/>
<path d="M163.748 85.4693C163.748 85.4693 166.594 79.9691 173.461 80.6489C180.576 81.3905 183.174 88.8683 183.174 88.8683C183.174 88.8683 180.638 84.7277 175.75 83.4917C171.049 82.2557 163.748 85.4693 163.748 85.4693Z" fill="#B35133"/>
<path d="M163.068 85.7165C165.79 83.2445 171.172 81.9467 174.761 82.6265C178.349 83.3063 181.38 85.7783 183.175 88.8683C180.452 86.3963 177.668 85.0367 174.204 84.8513C170.925 84.6659 167.893 85.5311 164.8 87.4469L163.068 85.7165Z" fill="#202020"/>
<path d="M201.858 108.335C201.858 108.335 199.445 117.42 187.938 117.42C176.307 117.42 174.018 108.335 174.018 108.335H201.858Z" fill="#651B1A"/>
<path d="M201.858 106.852C202.415 107.717 203.343 108.706 204.518 109.015C204.766 109.077 205.075 109.077 205.261 108.953C205.632 108.706 205.199 107.903 205.013 107.594C204.642 107.038 204.024 106.605 203.467 106.111C202.972 105.74 202.229 105.307 201.796 105.616C201.425 105.925 201.611 106.481 201.858 106.852Z" fill="#B35133"/>
<path d="M174.018 106.852C173.461 107.717 172.533 108.706 171.358 109.015C171.11 109.077 170.801 109.077 170.615 108.953C170.244 108.706 170.677 107.903 170.863 107.594C171.234 107.038 171.853 106.605 172.41 106.111C172.905 105.74 173.647 105.307 174.08 105.616C174.451 105.925 174.266 106.481 174.018 106.852Z" fill="#B35133"/>
<path d="M199.569 109.386C199.569 109.386 195.795 113.897 187.938 113.897C180.081 113.897 176.307 109.386 176.307 109.386H199.569Z" fill="white"/>
<path d="M176.678 106.172C179.772 105.554 182.37 104.689 187.938 107.841C193.506 104.689 196.104 105.616 199.198 106.172C201.796 106.667 203.528 107.285 203.528 107.285C203.528 107.285 201.116 109.633 196.228 111.116C194.001 111.796 191.217 112.291 187.938 112.291C184.659 112.291 181.875 111.796 179.648 111.116C174.699 109.633 172.348 107.285 172.348 107.285C172.348 107.285 174.018 106.667 176.678 106.172Z" fill="#9B3D2F"/>
<path d="M201.858 108.335C201.858 108.335 199.445 117.42 187.938 117.42C176.431 117.42 174.018 108.335 174.018 108.335L172.348 107.347C172.348 107.347 173.585 122.735 187.938 122.735C202.291 122.735 203.528 107.347 203.528 107.347L201.858 108.335Z" fill="#9B3D2F"/>
<path d="M187.938 115.628C180.576 115.628 177.111 113.156 175.565 111.487C177.297 114.145 180.947 117.42 187.938 117.42C194.867 117.42 198.455 114.145 200.249 111.487C198.641 113.218 195.115 115.628 187.938 115.628Z" fill="white"/>
<path d="M167.646 103.577C170.448 103.577 172.719 102 172.719 100.054C172.719 98.1086 170.448 96.5315 167.646 96.5315C164.844 96.5315 162.573 98.1086 162.573 100.054C162.573 102 164.844 103.577 167.646 103.577Z" fill="#D17F49"/>
<path d="M208.354 103.577C211.156 103.577 213.427 102 213.427 100.054C213.427 98.1086 211.156 96.5315 208.354 96.5315C205.553 96.5315 203.281 98.1086 203.281 100.054C203.281 102 205.553 103.577 208.354 103.577Z" fill="#D17F49"/>
<path d="M193.63 74.2217C192.578 76.1375 191.898 78.2387 191.403 80.4017C190.908 82.5029 190.66 84.6659 190.66 86.8289C190.66 88.9919 190.97 91.0931 191.774 93.0707C192.578 95.0483 193.63 97.0259 194.744 98.8799L194.929 99.2507L194.682 99.4979C194.311 99.9305 193.939 100.239 193.506 100.61C193.073 100.919 192.702 101.29 192.269 101.537C191.836 101.846 191.341 102.093 190.908 102.279C190.413 102.464 189.918 102.65 189.423 102.711C189.856 102.464 190.289 102.217 190.722 101.97C191.155 101.661 191.527 101.352 191.898 101.043C192.269 100.734 192.64 100.363 192.95 99.9923C193.259 99.6215 193.63 99.2507 193.878 98.8799V99.4979C192.578 97.6439 191.403 95.7281 190.537 93.6269C190.104 92.5763 189.794 91.4021 189.609 90.2897C189.423 89.1773 189.361 88.0031 189.423 86.8907C189.485 84.6041 189.856 82.3793 190.537 80.2163C191.279 77.9915 192.269 75.9521 193.63 74.2217Z" fill="#77312E"/>
<path d="M209.654 68.0417C206.684 66.6821 201.302 65.6933 198.889 65.5697C197.528 65.8787 196.167 69.3395 196.167 69.3395C196.167 69.3395 196.043 68.3507 197.899 65.5697C196.29 65.9405 194.372 70.5137 195.177 71.2553C195.795 71.8733 205.88 71.1935 207.736 71.6879C209.592 72.1823 214.912 75.2105 215.098 74.6543C215.283 74.1599 213.304 69.7103 209.654 68.0417Z" fill="#202020"/>
<path d="M196.847 65.6315C195.919 66.6821 195.239 67.9799 194.805 69.3395C194.744 68.1653 194.991 66.9911 195.486 65.9405C195.919 65.6315 196.414 65.6315 196.847 65.6315Z" fill="#202020"/>
<path d="M216.026 75.2723C215.778 73.4183 214.912 71.6879 213.613 70.3901C214.603 70.6991 215.407 71.3171 215.902 72.2441C216.397 73.1711 216.335 74.2217 216.026 75.2723Z" fill="#202020"/>
<path d="M199.94 71.5642C200.93 70.2046 202.044 68.9068 203.405 67.8562C203.962 67.4236 204.58 66.991 205.199 66.682C204.704 66.5584 204.209 66.4348 203.776 66.373C203.281 66.682 202.848 67.0528 202.415 67.4854C201.054 68.7214 199.817 70.081 198.827 71.626C199.198 71.5642 199.569 71.5642 199.94 71.5642Z" fill="#474747"/>
<path d="M207.364 67.2382C207.241 67.2382 207.179 67.1764 207.055 67.1764C204.642 68.1652 202.415 69.7102 200.559 71.5642C200.807 71.5642 201.116 71.5642 201.363 71.5642C203.157 69.772 205.137 68.2888 207.364 67.2382Z" fill="#331111"/>
<path d="M166.347 68.0417C169.316 66.6821 174.699 65.6933 177.112 65.5697C178.473 65.8787 179.834 69.3395 179.834 69.3395C179.834 69.3395 179.958 68.3507 178.102 65.5697C179.71 65.9405 181.628 70.5137 180.824 71.2553C180.205 71.8733 170.121 71.1935 168.265 71.6879C166.409 72.1823 161.088 75.2105 160.903 74.6543C160.717 74.1599 162.697 69.7103 166.347 68.0417Z" fill="#202020"/>
<path d="M179.153 65.6315C180.081 66.6821 180.762 67.9799 181.195 69.3395C181.257 68.1653 181.009 66.9911 180.514 65.9405C180.081 65.6315 179.586 65.6315 179.153 65.6315Z" fill="#202020"/>
<path d="M159.975 75.2723C160.222 73.4183 161.088 71.6879 162.387 70.3901C161.397 70.6991 160.593 71.3171 160.098 72.2441C159.603 73.1711 159.665 74.2217 159.975 75.2723Z" fill="#202020"/>
<path d="M176.06 71.5642C175.07 70.2046 173.956 68.9068 172.595 67.8562C172.039 67.4236 171.42 66.991 170.801 66.682C171.296 66.5584 171.791 66.4348 172.224 66.373C172.719 66.682 173.152 67.0528 173.585 67.4854C174.946 68.7214 176.184 70.081 177.174 71.626C176.802 71.5642 176.431 71.5642 176.06 71.5642Z" fill="#474747"/>
<path d="M168.636 67.2382C168.76 67.2382 168.822 67.1764 168.945 67.1764C171.358 68.1652 173.585 69.7102 175.441 71.5642C175.194 71.5642 174.885 71.5642 174.637 71.5642C172.843 69.772 170.863 68.2888 168.636 67.2382Z" fill="#331111"/>
<path d="M188.495 51.4175C197.033 51.4175 197.28 48.6365 205.447 49.5017C209.468 49.9343 217.882 38.5013 210.21 27.3155C202.601 16.1915 177.854 19.4669 168.574 24.5963C157.005 31.0235 149.457 38.4395 147.416 46.7825C147.416 46.7825 151.004 43.6307 153.045 41.7149C153.045 41.7149 148.962 45.3611 147.601 50.7995C146.24 56.2379 152.489 78.5477 153.788 81.8849C154.963 84.9131 156.324 87.7559 157.252 89.2391C158.613 91.4639 158.49 85.1603 157.624 79.2275C156.757 73.3565 161.088 68.5979 161.397 64.6427C161.707 60.1931 166.285 51.7883 174.142 49.9343C179.834 48.6365 181.752 51.4175 188.495 51.4175Z" fill="#202020"/>
<path d="M212.252 38.5012C220.356 36.4618 226.357 41.8384 227.162 50.7994C227.718 56.794 223.326 78.733 222.089 81.8848C221.161 84.3568 219.552 87.8176 218.5 87.694C217.449 87.6322 219.119 81.2668 218.995 77.188C218.872 73.1092 213.737 65.446 213.304 60.7492C212.87 56.0524 209.592 50.4286 205.447 49.4398C202.168 48.6982 212.252 38.5012 212.252 38.5012Z" fill="#202020"/>
<path d="M195.548 52.5918C192.393 52.9008 189.237 52.3446 186.082 52.0356C182.927 51.6648 179.648 51.5412 176.679 52.53C173.647 53.5188 170.925 55.929 170.368 59.019C170.306 54.9402 171.729 50.9232 174.451 47.8332C177.112 44.805 180.947 42.7656 184.969 42.2712C189.299 41.7768 193.692 43.0128 197.961 43.7544C202.786 44.5578 208.107 43.569 211.695 39.9846C210.829 42.8274 209.715 44.7432 208.169 46.5354C205.137 50.058 200.312 52.1592 195.548 52.5918Z" fill="#474747"/>
<path d="M148.9 63.0359C149.395 65.5697 150.014 68.1653 150.633 70.6373C151.932 63.9011 154.654 57.4739 158.552 51.8501C154.283 54.5075 150.942 58.4627 148.9 63.0359Z" fill="#474747"/>
<path d="M215.16 51.0466C219.49 52.9624 223.45 55.8052 226.605 59.266C226.729 58.339 226.852 57.4738 226.914 56.6704C223.512 54.013 219.428 52.159 215.16 51.0466Z" fill="#474747"/>
<path d="M242.133 123.291C236.937 118.223 230.502 116.555 223.697 115.072C223.697 115.072 239.535 120.634 188 163.708C136.465 120.634 152.303 115.072 152.303 115.072C145.498 116.555 139.063 118.223 133.867 123.291C128.732 128.297 131.392 135.96 132.629 138.247C138.63 149.247 166.842 162.472 173.894 165.748C180.947 169.023 188 170.692 188 170.692C188 170.692 195.053 169.023 202.106 165.748C209.158 162.472 237.308 149.247 243.371 138.247C244.608 135.96 247.268 128.297 242.133 123.291Z" fill="white"/>
<path opacity="0.4" d="M186.206 162.163C186.825 162.596 187.381 162.967 188 163.399C188.619 162.967 189.237 162.596 189.794 162.163C189.176 162.658 188.619 163.152 188 163.708C187.381 163.152 186.763 162.658 186.206 162.163ZM174.08 165.809C174.018 165.809 173.956 165.748 173.895 165.748C166.842 162.472 138.692 149.247 132.629 138.247C132.073 137.258 131.268 135.218 130.959 132.808C129.041 134.106 127.247 135.404 125.577 136.64C126.01 138.37 126.752 139.792 127.247 140.595C133.867 150.421 160.655 165.253 172.533 165.253C173.09 165.253 173.523 165.624 174.08 165.809ZM248.753 140.595C249.248 139.853 249.991 138.37 250.424 136.64C248.753 135.342 246.959 134.044 245.041 132.808C244.732 135.218 243.928 137.258 243.371 138.247C237.37 149.247 209.159 162.472 202.106 165.748C202.044 165.748 201.982 165.809 201.92 165.809C202.415 165.624 202.91 165.253 203.529 165.253C215.469 165.253 242.195 150.421 248.753 140.595Z" fill="#BA623B"/>
</g>
<defs>
<clipPath id="clip0_116_1855">
<rect width="464" height="309" fill="white" transform="translate(-44)"/>
</clipPath>
</defs>
</svg>
