<svg width="106" height="40" viewBox="0 0 106 40" fill="none" xmlns="http://www.w3.org/2000/svg">
<path d="M96.442 10.7422C96.4522 10.7422 96.4623 10.7473 96.4725 10.7473C96.4725 16.3811 96.4725 22.0098 96.4725 27.6436L96.4572 27.6487H96.442C96.3912 27.6082 96.3912 27.5474 96.3861 27.4866C96.381 27.4258 96.3861 27.3701 96.3861 27.3093C96.3861 21.8984 96.3861 16.4875 96.3861 11.0766C96.3861 10.9651 96.3556 10.8384 96.442 10.7422Z" fill="#5B5958"/>
<path d="M29.6951 13.5488C29.6951 13.5691 29.7002 13.5843 29.6951 13.5995C27.9873 18.9141 26.2795 24.2287 24.5767 29.5332C24.5259 29.5586 24.4852 29.5484 24.4395 29.5484C23.2501 29.5484 22.0608 29.5484 20.8765 29.5484C20.8562 29.5484 20.8358 29.5484 20.8104 29.5484C20.7494 29.5535 20.724 29.5231 20.7088 29.4724C20.7037 29.4471 20.6884 29.4218 20.6833 29.3964C19.9362 27.2483 19.189 25.0951 18.4469 22.9469C17.9031 21.3713 17.3541 19.8007 16.8103 18.2251C16.795 18.1845 16.7798 18.144 16.7645 18.1086C16.7239 18.1136 16.7188 18.1491 16.7086 18.1795C16.485 18.8381 16.2613 19.4967 16.0377 20.1554C14.9957 23.2408 13.9487 26.3262 12.9067 29.4116C12.8508 29.5738 12.8864 29.5535 12.7136 29.5535C11.5039 29.5535 10.2942 29.5535 9.08446 29.5535C9.04889 29.5535 9.00822 29.5535 8.97264 29.5535C8.94215 29.5535 8.92182 29.5383 8.91673 29.5079C8.90657 29.4724 8.89132 29.437 8.88115 29.4015C7.33599 24.6492 5.78575 19.897 4.24059 15.1447C4.08811 14.6685 3.93054 14.1973 3.77806 13.7211C3.76281 13.6653 3.72723 13.6147 3.73739 13.5589C3.77297 13.5336 3.81364 13.5437 3.84922 13.5437C5.13007 13.5437 6.40585 13.5437 7.6867 13.5437C7.82394 13.5437 7.81377 13.5387 7.85444 13.6755C8.04758 14.329 8.24072 14.9775 8.42879 15.6311C9.29286 18.5696 10.1569 21.503 11.0261 24.4415C11.0362 24.4821 11.0515 24.5226 11.0667 24.5631C11.1125 24.5479 11.1125 24.5074 11.1227 24.4719C11.3666 23.7626 11.6106 23.0584 11.8495 22.3491C12.8355 19.4714 13.8165 16.5988 14.8026 13.7211C14.8737 13.5184 14.828 13.5437 15.0567 13.5437C16.2461 13.5437 17.4355 13.5437 18.6197 13.5437C18.6553 13.5437 18.696 13.5437 18.7316 13.5437C18.8027 13.5437 18.8281 13.5539 18.8586 13.6349C19.0162 14.096 19.1738 14.557 19.3313 15.0231C20.4038 18.1592 21.4813 21.2953 22.5538 24.4365C22.569 24.4821 22.5843 24.5277 22.6046 24.5783C22.6453 24.5378 22.6504 24.4973 22.6605 24.4517C22.9858 23.3219 23.3162 22.187 23.6415 21.0572C24.226 19.0408 24.8055 17.0193 25.39 15.0029C25.5221 14.5469 25.6543 14.096 25.7814 13.64C25.8017 13.564 25.822 13.5437 25.9033 13.5488C25.9237 13.5488 25.944 13.5488 25.9694 13.5488C27.1588 13.5488 28.3482 13.5488 29.5324 13.5488C29.5934 13.5387 29.6443 13.5285 29.6951 13.5488Z" fill="#11284C"/>
<path d="M44.9841 28.2564C44.9587 27.8359 44.9434 27.4205 44.9434 27V19.2079C44.9434 18.9647 44.9434 18.7215 44.9282 18.4682C44.8875 17.9413 44.7909 17.4144 44.6283 16.9179C44.1962 15.5956 43.383 14.5975 42.153 13.9236C41.421 13.5335 40.6383 13.3056 39.8149 13.1688C39.4642 13.113 39.1135 13.0877 38.7577 13.0624C37.8631 13.0066 36.999 13.0624 36.135 13.265C35.2963 13.4677 34.5136 13.8021 33.7969 14.2884C32.943 14.8812 32.267 15.6513 31.8197 16.5936C31.591 17.08 31.4385 17.5917 31.3572 18.1186C31.3419 18.2655 31.3318 18.2807 31.4944 18.3061C32.3737 18.5087 33.253 18.7114 34.1324 18.8988C34.3509 18.9546 34.5644 19.0052 34.783 19.0458C34.8389 19.061 34.849 19.061 34.8643 19.0052C34.8643 18.9799 34.8643 18.9495 34.8795 18.9242C34.8948 18.7063 34.9456 18.5189 35.0015 18.3162C35.2455 17.6018 35.6623 17.0243 36.3129 16.6291C36.7449 16.3707 37.2176 16.239 37.7208 16.1833C38.0207 16.1579 38.3155 16.1579 38.6154 16.1833C38.9813 16.2238 39.332 16.2897 39.6827 16.4112C40.0487 16.5582 40.374 16.7608 40.6281 17.0597C41.0602 17.5461 41.2076 18.1237 41.1669 18.757C41.1415 19.137 40.9382 19.4156 40.5875 19.5777C40.4401 19.6436 40.2774 19.6993 40.0995 19.7247C39.6827 19.7905 39.2609 19.8463 38.8441 19.9121C38.3816 19.978 37.9394 20.0489 37.4768 20.1148C36.9482 20.1958 36.4348 20.2769 35.9062 20.358C35.525 20.4137 35.1642 20.4796 34.7982 20.5859C34.1476 20.7734 33.5275 21.0318 32.9735 21.4219C32.2568 21.9083 31.7028 22.5416 31.3775 23.337C31.0268 24.1881 30.9455 25.0646 31.0776 25.9512C31.2403 26.8936 31.657 27.7194 32.3331 28.4186C32.8718 28.986 33.5377 29.4014 34.2798 29.675C34.8592 29.8777 35.4691 29.9993 36.0791 30.0246C36.7297 30.0499 37.3752 30.0094 38.0156 29.8625C39.4083 29.523 40.5316 28.8087 41.3448 27.6231C41.3601 27.5978 41.3601 27.5674 41.4007 27.5826C41.4007 27.5978 41.416 27.6079 41.416 27.6383C41.416 27.9221 41.4312 28.2058 41.4414 28.4743C41.4566 28.7175 41.482 28.9607 41.5075 29.1887C41.5227 29.2951 41.5481 29.3913 41.5634 29.4876C41.5634 29.5281 41.5888 29.5433 41.6193 29.5433H45.0146C45.0552 29.5433 45.0959 29.5585 45.1365 29.5281V29.4876C45.0654 29.0772 45.0247 28.6719 44.9841 28.2564ZM41.172 23.185C41.1567 23.722 41.0754 24.2641 40.9026 24.7758C40.74 25.2318 40.496 25.6371 40.1605 25.9918C39.7539 26.4123 39.266 26.6808 38.7119 26.8429C38.1172 27.0202 37.5073 27.0709 36.8872 27.0304C36.5467 27.005 36.2112 26.924 35.9113 26.7467C35.3014 26.4072 34.9659 25.8955 34.8694 25.2115C34.8287 24.9126 34.8694 24.6188 34.9507 24.3199C35.0879 23.8892 35.3421 23.5498 35.708 23.3066C36.0333 23.0786 36.3993 22.9418 36.7754 22.8607C37.0346 22.805 37.2888 22.7645 37.548 22.724C38.0207 22.6581 38.4934 22.5872 38.9661 22.5213C39.3574 22.4554 39.7488 22.3997 40.1554 22.344C40.4655 22.2882 40.7755 22.2477 41.1008 22.197H41.1567C41.1822 22.2224 41.1822 22.2528 41.1822 22.2933C41.1822 22.5922 41.1822 22.8911 41.172 23.185Z" fill="#11284C"/>
<path d="M71.0586 27.8467C70.5656 28.6573 69.8438 29.1842 68.9899 29.5389C68.441 29.7669 67.8666 29.9036 67.277 29.9695C66.8552 30.0151 66.4384 30.0202 66.0165 29.9898C65.0101 29.9188 64.0698 29.6503 63.2108 29.1082C62.2654 28.5104 61.5742 27.6896 61.1065 26.6865C60.827 26.0836 60.6491 25.4554 60.5525 24.7967C60.4915 24.3762 60.4661 23.9507 60.4661 23.5251C60.4661 20.2623 60.4661 16.9996 60.4661 13.7419C60.4661 13.5038 60.4305 13.5291 60.6796 13.5291C61.8181 13.5291 62.9618 13.5291 64.1003 13.5291C64.146 13.5291 64.1969 13.5291 64.2426 13.5291C64.2833 13.5291 64.2985 13.5544 64.2985 13.5899C64.2985 13.6355 64.2985 13.6862 64.2985 13.7318C64.2985 16.7716 64.2985 19.8114 64.2985 22.8462C64.2985 23.2211 64.3239 23.5909 64.3951 23.9557C64.4663 24.3408 64.5832 24.7055 64.7712 25.0501C65.1778 25.8151 65.8081 26.2862 66.6518 26.4788C67.0788 26.575 67.5159 26.5953 67.953 26.5548C68.3088 26.5193 68.6595 26.4484 68.9899 26.3116C69.7676 25.9924 70.2911 25.425 70.6012 24.6549C70.7435 24.3002 70.8248 23.9253 70.8655 23.5453C70.8909 23.3224 70.8909 23.0995 70.8909 22.8766C70.8909 19.8317 70.8909 16.7868 70.8909 13.747C70.8909 13.7014 70.8909 13.6507 70.8909 13.6051C70.8909 13.5443 70.901 13.5342 70.9671 13.5342C71.0027 13.5342 71.0434 13.5342 71.0789 13.5342C72.2276 13.5342 73.3814 13.5342 74.5301 13.5342C74.7487 13.5342 74.7182 13.5139 74.7182 13.7166C74.7182 17.9622 74.7182 22.2078 74.7182 26.4484C74.7182 26.9905 74.7284 27.5326 74.7589 28.0747C74.7843 28.5205 74.8148 28.9664 74.8707 29.4071C74.8758 29.4274 74.8758 29.4477 74.8758 29.473C74.8808 29.5389 74.8707 29.5439 74.8046 29.549C74.7741 29.549 74.7385 29.549 74.708 29.549C73.6 29.549 72.4919 29.549 71.3839 29.549C71.1755 29.549 71.2162 29.5642 71.1908 29.3869C71.1501 29.1285 71.1298 28.8701 71.1145 28.6117C71.0993 28.3787 71.0942 28.1456 71.084 27.9126C71.084 27.8923 71.0942 27.872 71.0586 27.8467Z" fill="#11284C"/>
<path d="M53.8483 20.8041C53.8483 21.9744 53.8483 23.1397 53.8483 24.31C53.8483 24.5937 53.8686 24.8724 53.9398 25.146C53.95 25.1764 53.955 25.2068 53.9652 25.2372C54.1177 25.7539 54.4532 26.0832 54.9716 26.2352C55.2308 26.3112 55.4951 26.3416 55.7594 26.3518C56.0339 26.3619 56.3033 26.3416 56.5727 26.3112C56.7607 26.291 56.9539 26.2606 57.1419 26.2352C57.1978 26.2302 57.208 26.2352 57.2131 26.291C57.2131 26.3264 57.2131 26.367 57.2131 26.4024C57.2131 27.3448 57.2131 28.2821 57.2131 29.2244C57.2131 29.4119 57.2385 29.3815 57.0555 29.4473C56.7353 29.5638 56.3999 29.6297 56.0593 29.6753C55.5409 29.7462 55.0173 29.7614 54.4938 29.7412C53.9195 29.7158 53.3604 29.6145 52.8216 29.4119C51.5407 28.9305 50.7021 28.0287 50.2904 26.7267C50.1582 26.3062 50.0871 25.8705 50.0566 25.4297C50.0413 25.1865 50.0362 24.9433 50.0362 24.6951C50.0362 22.1821 50.0362 19.6692 50.0362 17.1563C50.0362 17.1107 50.0362 17.06 50.0362 17.0144C50.0362 16.9283 50.0362 16.9283 49.9447 16.9283C49.7262 16.9283 49.5076 16.9283 49.2891 16.9283C48.608 16.9283 47.9269 16.9283 47.2407 16.9283C47.2 16.9283 47.1543 16.9283 47.1136 16.9283C47.0933 16.9283 47.073 16.9131 47.073 16.8878C47.073 16.8574 47.0679 16.8219 47.0679 16.7915C47.0679 15.758 47.0679 14.7193 47.0679 13.6858C47.0679 13.5338 47.0628 13.5389 47.2153 13.5389C47.5457 13.5338 47.8761 13.549 48.2064 13.5237C48.5012 13.5034 48.7859 13.4376 49.0553 13.321C49.6398 13.0677 50.0159 12.632 50.2141 12.0342C50.3209 11.7099 50.3615 11.3705 50.3615 11.031C50.3615 10.2964 50.3615 9.56684 50.3615 8.83221C50.3615 8.60423 50.331 8.63969 50.5547 8.63969C51.6017 8.63969 52.6437 8.63969 53.6907 8.63969C53.8381 8.63969 53.828 8.62449 53.828 8.77648C53.828 10.2964 53.828 11.8163 53.828 13.3362C53.828 13.3818 53.828 13.4325 53.828 13.4781C53.828 13.5186 53.8534 13.5338 53.889 13.5338C53.9347 13.5338 53.9855 13.5338 54.0313 13.5338C55.0021 13.5338 55.9729 13.5338 56.9386 13.5338C56.9844 13.5338 57.0352 13.5338 57.0809 13.5338C57.147 13.5338 57.1521 13.5389 57.1521 13.6098C57.1521 13.6402 57.1521 13.6757 57.1521 13.7061C57.1521 14.7193 57.1521 15.7377 57.1521 16.751C57.1521 16.9536 57.1724 16.9283 56.9691 16.9283C55.978 16.9283 54.9868 16.9283 53.9957 16.9283C53.7924 16.9283 53.8178 16.908 53.8178 17.1107C53.8483 18.3418 53.8483 19.5729 53.8483 20.8041Z" fill="#11284C"/>
<path d="M96.442 10.7415C96.4369 10.7769 96.4369 10.8175 96.4369 10.8529C96.4369 10.9391 96.442 11.0252 96.442 11.1062C96.442 16.5019 96.442 21.8976 96.442 27.2984C96.442 27.4149 96.4216 27.5315 96.4471 27.648C96.4521 27.8202 96.4064 27.9824 96.3505 28.1445C96.0252 29.021 95.4 29.558 94.4902 29.7708C94.358 29.8012 94.2157 29.8164 94.0785 29.8164C94.0327 29.8164 93.9819 29.8164 93.9362 29.8164C90.0377 29.8164 86.1341 29.8164 82.2356 29.8164C81.9662 29.8164 81.707 29.7911 81.4478 29.71C80.5482 29.4415 79.8671 28.6663 79.7146 27.7442C79.6943 27.6226 79.6841 27.5011 79.6841 27.3795C79.6841 27.3288 79.6841 27.2731 79.6841 27.2224C79.6841 21.8672 79.6841 16.5171 79.6841 11.162C79.6841 10.9289 79.6993 10.6959 79.7552 10.4679C79.9738 9.56607 80.7108 8.84665 81.6155 8.64399C81.8036 8.60346 81.9917 8.57812 82.1848 8.57812C86.124 8.57812 90.058 8.57812 93.9972 8.57812C95.1662 8.57812 96.1726 9.38875 96.4267 10.5034C96.4369 10.5844 96.4369 10.6604 96.442 10.7415Z" fill="#5F565F"/>
<path d="M95.1407 19.2029C95.1407 21.8475 95.1407 24.4922 95.1407 27.1419C95.1407 27.2331 95.1407 27.3243 95.1357 27.4104C95.1052 28.0032 94.5867 28.4743 94.0276 28.4743C93.9819 28.4743 93.931 28.4743 93.8853 28.4743C90.0173 28.4743 86.1442 28.4743 82.2763 28.4743C82.1441 28.4743 82.012 28.4744 81.8798 28.4389C81.3156 28.2869 81.0157 27.7752 81.0208 27.3547C81.0208 27.3192 81.0208 27.2787 81.0208 27.2432C81.0208 21.8779 81.0208 16.5126 81.0208 11.1473C81.0208 11.0207 81.0208 10.894 81.0564 10.7673C81.1886 10.2759 81.6358 9.92127 82.1441 9.91113C82.1899 9.91113 82.2407 9.91113 82.2864 9.91113C86.1493 9.91113 90.0122 9.91113 93.8802 9.91113C94.0022 9.91113 94.1242 9.91113 94.2462 9.93646C94.7951 10.0581 95.1306 10.5495 95.1407 10.9903C95.1407 11.0815 95.1458 11.1727 95.1458 11.2588C95.1407 13.9085 95.1407 16.5582 95.1407 19.2029Z" fill="#FCC10F"/>
<path d="M88.9347 19.2634C88.9347 20.9251 88.9347 22.5717 88.9347 24.2233C88.9855 24.2335 89.0312 24.2487 89.077 24.2588C89.3413 24.3247 89.5344 24.5375 89.57 24.806C89.5903 24.963 89.5903 25.1252 89.57 25.2822C89.5243 25.5811 89.2701 25.8142 88.9702 25.8294C88.9448 25.8294 88.9194 25.8294 88.8889 25.8294C88.3806 25.8294 87.8774 25.8294 87.3692 25.8294C87.3031 25.8294 87.2421 25.8294 87.1811 25.8142C86.9015 25.7483 86.6932 25.495 86.683 25.2062C86.6779 25.0948 86.683 24.9833 86.683 24.8718C86.683 24.6236 86.8711 24.3348 87.1811 24.2588C87.2268 24.2487 87.2726 24.2386 87.3183 24.2284C87.3336 24.1068 87.3387 19.5066 87.3234 19.3191C87.2828 19.3039 87.2421 19.3242 87.2065 19.3394C86.7846 19.4964 86.4136 19.7295 86.0883 20.0335C85.575 20.5097 85.1836 21.0721 84.9294 21.7307C84.8735 21.8725 84.8024 21.9992 84.6956 22.1056C84.66 22.1461 84.6245 22.1867 84.5889 22.2272C84.3551 22.4856 84.0044 22.5362 83.7045 22.3589C83.5774 22.2829 83.4554 22.1968 83.3284 22.1157C83.0387 21.9283 82.7489 21.7358 82.4592 21.5483C82.3626 21.4824 82.2711 21.4115 82.2102 21.3051C82.0729 21.0771 82.0678 20.8441 82.1949 20.606C82.2407 20.5148 82.3016 20.4337 82.3626 20.3526C82.5761 20.0588 82.9573 19.9777 83.2725 20.1601C83.3436 20.2006 83.4046 20.2462 83.4758 20.2918C83.5215 20.3222 83.5622 20.3476 83.6079 20.3729C83.6537 20.3374 83.6638 20.2868 83.6842 20.2462C84.35 18.8885 85.4123 18.0069 86.8761 17.6168C87.0083 17.5813 87.1455 17.5611 87.2828 17.5307C87.3133 17.5256 87.3285 17.5104 87.3336 17.48C87.3336 17.4445 87.3336 17.404 87.3387 17.3685C87.3387 16.3502 87.3387 15.3268 87.3387 14.3084C87.3387 14.2628 87.3488 14.2122 87.3285 14.1666C87.2726 14.1565 87.2167 14.1413 87.1608 14.1261C86.9016 14.0602 86.6932 13.7967 86.6932 13.5282C86.6932 13.4117 86.6932 13.2952 86.6932 13.1786C86.6982 12.8443 86.9981 12.5605 87.3183 12.5605C87.8673 12.5605 88.4162 12.5605 88.9652 12.5605C89.2498 12.5605 89.5395 12.7936 89.5802 13.1077C89.6005 13.2597 89.5954 13.4168 89.5853 13.5688C89.57 13.7967 89.3972 14.0703 89.0871 14.1413C89.0566 14.1463 89.0262 14.1514 88.9906 14.1565C88.9601 14.1615 88.9397 14.1767 88.9397 14.2071C88.9397 14.2477 88.9397 14.2932 88.9397 14.3338C88.9397 15.3369 88.9397 16.3401 88.9397 17.3432C88.9397 17.3483 88.9397 17.3533 88.9397 17.3584C88.9448 17.4952 88.9092 17.5053 89.0922 17.5357C90.0427 17.6979 90.8712 18.1082 91.5675 18.7719C91.9945 19.1823 92.3299 19.6535 92.5841 20.1905C92.5892 20.2057 92.5993 20.2209 92.6044 20.2361C92.6349 20.2918 92.6451 20.2969 92.701 20.2614C92.762 20.226 92.8179 20.1854 92.8738 20.15C92.9348 20.1095 93.0009 20.079 93.0771 20.0588C93.3516 19.9777 93.6413 20.1044 93.7887 20.302C93.8548 20.3932 93.9107 20.4894 93.9717 20.5806C94.1343 20.8289 94.1089 21.2494 93.7785 21.4672C93.6362 21.5635 93.4939 21.6547 93.3516 21.7459C93.0619 21.9333 92.7722 22.1259 92.4824 22.3133C92.3604 22.3944 92.2283 22.4451 92.0809 22.44C91.8776 22.4349 91.7099 22.3589 91.5777 22.2019C91.5116 22.1259 91.4557 22.0448 91.3947 21.9637C91.3236 21.8675 91.2829 21.7611 91.2422 21.6496C91.0491 21.1329 90.7746 20.6617 90.4188 20.2412C90.1088 19.8815 89.753 19.5876 89.3159 19.39C89.1888 19.3444 89.0719 19.2988 88.9347 19.2634Z" fill="#5F565F"/>
<path d="M100.168 12.089H99.8423V9.6875H100.955C101.352 9.6875 101.748 9.82429 101.748 10.3309C101.748 10.6856 101.565 10.8173 101.413 10.9085C101.55 10.9642 101.687 11.025 101.703 11.3594L101.723 11.7951C101.728 11.9268 101.743 11.9775 101.845 12.0383V12.094H101.443C101.398 11.9471 101.387 11.5823 101.387 11.4911C101.387 11.2935 101.347 11.0605 100.955 11.0605H100.168V12.089ZM100.168 10.7818H100.925C101.164 10.7818 101.413 10.721 101.413 10.3664C101.413 9.99655 101.138 9.96615 100.981 9.96615H100.168V10.7818Z" fill="#11284C"/>
<path d="M100.757 13.2648C99.451 13.2648 98.3887 12.206 98.3887 10.9039C98.3887 9.60184 99.451 8.54297 100.757 8.54297C102.064 8.54297 103.126 9.60184 103.126 10.9039C103.126 12.206 102.064 13.2648 100.757 13.2648ZM100.757 8.82668C99.6085 8.82668 98.6733 9.7589 98.6733 10.8988C98.6733 12.0438 99.6085 12.9761 100.757 12.9761C101.906 12.9761 102.841 12.0438 102.841 10.8988C102.841 9.7589 101.906 8.82668 100.757 8.82668Z" fill="#11284C"/>
</svg>
